<svg id="Layer_1" data-name="Layer 1" xmlns="http://www.w3.org/2000/svg" xmlns:xlink="http://www.w3.org/1999/xlink" viewBox="0 0 1280 800"><defs><style>.cls-1{fill:none;}.cls-2{clip-path:url(#clip-path);}.cls-3{fill:#2d636e;}.cls-4{fill:#dea43d;}.cls-5{fill:#e3a53c;}.cls-6{fill:#dc9e37;}</style><clipPath id="clip-path"><ellipse class="cls-1" cx="640" cy="400" rx="369.21" ry="370.84"/></clipPath></defs><g class="cls-2"><path class="cls-1" d="M477,217.27c-4.34.11-6.91,2.78-7,6.84s2.37,7,6.74,7,6.39-2.92,6.53-7.26C483,220,481.41,217.17,477,217.27Z"/><path class="cls-1" d="M803.83,288c4,.07,7.33-2.08,7.58-6.35.24-3.93-2.33-6.46-6.36-6.81-4.2-.38-7.33,2.74-7.4,7.08C797.58,286.08,800.29,288,803.83,288Z"/><path class="cls-1" d="M705.47,484.64c11,25.91,21.92,51.34,33.45,78.39-9.17-2.74-16.57-4.61-23.72-7.22-3.65-1.32-5.25-1.15-7.05,2.67-10.39,22-24.32,41.51-42.59,57.49-50.12,43.76-107.46,62.27-173.66,47.79-6.39-1.39-12.5-4.06-18.62-6.43a39.77,39.77,0,0,1-8.58-4.89Q541,670.05,604.29,624.51c28.21-20.28,47.59-47.17,57.83-81.59l-29-7.08C657.64,518.51,681.23,501.84,705.47,484.64ZM582.69,574.08c-3.33-.49-6.63-1.35-11.46-2.4,12.57-10,24-19.06,36.12-28.69,6.6,13.58,13,26.64,19.35,39.7-.49.25-.87.59-1.15.52-4.24-1.07-9.27-4.2-12.4-2.81s-4.62,7.12-6.81,11c-15.17,27.12-39.14,42.16-68.63,49.14-9.27,2.19-19,2.78-28.44,4.07-.11-.59-.21-1.18-.28-1.74,7.36-2.29,14.86-4.17,22-6.91,26.85-10.42,44.77-29.59,54.53-56.58C586.69,576.16,586.16,574.6,582.69,574.08Zm-126.88,2.26c19.73.24,39.46,0,59.15-.42,4.27-.07,6.64.83,8,5.28,3.86,12.64,9.34,24.59,18,34.8,3.3,3.93.7,6.39-2.5,7.54-11.74,4.27-23.58,8.3-35.53,12-4.69,1.46-9.72,1.81-14.62,2.68l-.84,2.77c4.48,2.44,8.93,4.9,14.8,8.1-9.93-.77-18.79-.7-27.3-2.4A16.41,16.41,0,0,1,464.88,639c-9.1-17.72-14-36.75-15.42-56.65C449.11,577.69,450.74,576.27,455.81,576.34Zm35-284.71c-10.66,0-21,.07-31.4-.13-.87,0-2.4-2.05-2.4-3.13-.13-24.94-.1-49.84-.1-75.51,10.7,0,20-.17,29.21.17,1.6.07,4.45,2.44,4.48,3.76C490.86,241.38,490.79,265.93,490.79,291.63Zm198.88,6.92c-12.4,4.86-24.84,9.55-37.51,13.65-14.35,4.62-29,8.16-43.35,12.81-6.36,2.05-11.53.14-16.5-2.81-12.5-7.36-24.76-15.11-37.16-22.65-8.09-4.93-16.36-9.51-24.31-14.65a45,45,0,0,0-26.44-7.26c-3.61.1-5.24-.87-5-4.93.35-6.57.1-13.17.1-19.77h.8c0-6.77-.24-13.54.17-20.32.11-1.7,2.12-4.72,3.34-4.75,14-.35,28.58-3.27,41.92,2.32,10.35,4.34,19.87,10.91,29.38,17,13.31,8.58,26.37,17.54,39.32,26.61,2.61,1.8,5.59,4.55,6.22,7.36,2,9-3.06,13.44-11.46,9.76-6.91-3-12.92-8-19.66-11.57a128.21,128.21,0,0,0-15.87-6.56c-.91-.31-3.1.59-3.34,1.35-.35,1.12.07,3.27.94,3.86,5.31,3.75,10.73,7.36,16.32,10.66,4.17,2.43,8.9,4,12.92,6.57,10.74,7,21.68,3.68,32.51,1,16.33-4.06,32.48-8.79,48.84-12.57,3.26-.77,7.85.66,10.73,2.64C697.38,289.69,695.88,296.11,689.67,298.55Zm-67.94-51.37c.07-1.43,2.54-3.82,4-3.86,11.74-.31,23.51-.17,35.43-.17V274c-12,0-23.41,0-34.8,0-3.34,0-4.9-1.22-4.8-4.79C621.66,261.83,621.31,254.51,621.73,247.18Zm11.36-12.85c.35-6.29,2-7.85,8.68-7.58,6.43.28,7.85,2,7.43,8.86-.24,4-.24,4-8.05,3.65C638.54,238.08,632.67,241.9,633.09,234.33ZM777.4,281.46c-24.48,2.92-45.53-4.86-64.88-19.49-14.62-11.08-29.94-21.18-44.91-31.78-1.56-1.11-3-2.46-4.48-3.68a7.19,7.19,0,0,1-1.25-10.38c1.46-1.91,6.29-3.3,8.41-2.33,9.24,4.27,18,9.58,27.05,14.38a92,92,0,0,0,12.09,5.42c1.08.38,3.3-.77,4.13-1.84.52-.7-.24-3.37-1.11-3.86-13.89-7.47-27.68-15.28-42.09-21.67-3.86-1.71-9.8.73-14.63,1.8-16,3.62-31.92,7.61-47.93,11.19a29.66,29.66,0,0,1-11.42.62c-2.23-.38-5.42-3.09-5.63-5.07-.28-2.46,1.39-6,3.4-7.64,2.78-2.15,6.64-3.06,10.11-4.24,16.64-5.66,33.17-11.7,50-16.63,12.61-3.69,25.81-6.88,38.52-.35,7.5,3.85,14.31,9,21.57,13.34,8.78,5.24,17.88,10,26.57,15.35,11.22,6.94,22.12,14.27,36.26,13.68,1.25-.07,3.65,3.13,3.75,4.9.42,7.33.17,14.69.17,22h.32c0,7.16-.18,14.35.07,21.5C781.6,280,780.67,281.08,777.4,281.46ZM824,294.34c-9.66,0-18.93,0-28.2,0-3.06,0-4.69-1-4.69-4.34q0-37.73,0-75.48a7.47,7.47,0,0,1,.62-2H824Z"/><path class="cls-3" d="M643.37,29.3C431.53,27.63,269.75,199,269.75,397.6c0,102.33,35.6,191.55,107.85,264.39C465.26,750.35,572.83,782.3,695,767.09,848.4,748,1009.69,609.37,1010.21,401.15,1010.35,194.07,844.92,30.9,643.37,29.3ZM806,653.69a13.77,13.77,0,0,1,.42-2.82c1.84-4,3.58-8,5.21-12.12C778.34,718,694.36,761.6,694.36,761.6c-51,18.58-115.45,1.77-115.45,1.77-26.85-6.18-96.67-92.07-96.67-92.07,4.21.83,8.34,1.52,12.33,2.15-19.41-4.76-36.57-14.24-52.2-27.65a39.7,39.7,0,0,1-4.24-5c.32-.59.63-1.22.94-1.81,5.25.8,10.49,1.63,15.81,2.47-81.07-63.56-120.53-148.14-117.75-249.59s46.72-183.39,134-239.55a188.75,188.75,0,0,0-17.54,53H476c2.33,0,4.66,0,7-.07,11.67-.06,12.89.84,15.46,11.81,8.61,0,17.26.14,25.91-.17,1,0,2.26-2.26,2.85-3.68,5.8-14,12.22-27.58,23-38.69,15.77-16.36,35.29-25.53,57.2-30,38.14-7.74,73.5-1.07,105.66,21.08,10.56,7.26,18.2,17.2,24.73,28.17,3.61,6.12,7.36,12.58,12.47,17.33,8.44,7.89,19.31,8.93,30.28,7.51.35-.56.7-.87.73-1.22,1.15-11.6,2-12.71,13.72-13.2,8.27-.34,16.57-.07,25.6-.07-5.24-21.84-12.36-41.71-23.93-60,23.65,6.11,76.9,56.75,102.22,97.73,25.53,41.27,39.73,86.52,43.31,134.7C952.11,509.89,879.59,610.44,806,653.69Z"/><path class="cls-3" d="M670.5,373.15c-29.25-7.4-58.18-16.25-86.87-25.6-23.79-7.78-41.71-23.09-52.24-46.47a26.43,26.43,0,0,0-28.9-15c-1.25.21-2.74,2.78-3,4.41-1.08,7.61-2.78,9.38-10.39,9.42-11.6.06-23.2,0-35.63,0,.73,3.82,1.18,7.15,2.05,10.38,11.67,42.3,37.65,73,76.06,93.6,25.08,13.41,52.24,21.19,79.29,29.21,16.12,4.8,32.2,9.73,48.28,14.63l5.28,1.56,47.79-62.17"/><path class="cls-3" d="M828.32,556a264.68,264.68,0,0,1-10.45,65.47A220.09,220.09,0,0,0,828.32,556Z"/><path class="cls-3" d="M604.26,624.51q-63.19,45.43-139.59,27.93a39.53,39.53,0,0,0,8.58,4.89c6.15,2.33,12.26,5,18.62,6.43,66.2,14.52,123.54-4,173.66-47.79,18.27-16,32.2-35.53,42.58-57.49,1.81-3.82,3.44-4,7-2.67,7.16,2.61,14.55,4.48,23.72,7.22-11.53-27-22.4-52.48-33.44-78.39-24.25,17.16-47.83,33.83-72.35,51.2l29,7.08C651.84,577.34,632.46,604.26,604.26,624.51Z"/><path class="cls-4" d="M692.52,286.32c-2.89-2-7.47-3.4-10.74-2.64-16.39,3.79-32.54,8.51-48.83,12.57-10.84,2.71-21.78,6.05-32.51-1-4-2.6-8.75-4.13-12.92-6.56-5.59-3.3-11-6.91-16.33-10.67-.86-.62-1.28-2.74-.93-3.85.24-.77,2.43-1.67,3.33-1.36a126.12,126.12,0,0,1,15.87,6.57C596.17,283,602.21,288,609.12,291c8.41,3.69,13.48-.76,11.46-9.76-.62-2.81-3.64-5.55-6.21-7.36-13-9.06-26-18.06-39.32-26.6-9.52-6.15-19-12.68-29.38-17-13.34-5.59-27.86-2.68-41.93-2.33-1.21,0-3.23,3.06-3.33,4.76-.38,6.74-.17,13.54-.17,20.32h-.8c0,6.6.24,13.16-.11,19.76-.21,4.06,1.46,5,5,4.93a44.85,44.85,0,0,1,26.43,7.26c8,5.14,16.22,9.73,24.31,14.66,12.4,7.54,24.66,15.28,37.17,22.64,5,2.92,10.14,4.87,16.5,2.82,14.31-4.66,29-8.2,43.34-12.82,12.64-4.1,25.11-8.79,37.51-13.65C695.88,296.11,697.38,289.69,692.52,286.32Z"/><path class="cls-4" d="M781.43,255.3h-.31c0-7.36.24-14.72-.18-22.05-.1-1.77-2.5-5-3.75-4.9-14.13.59-25-6.74-36.26-13.68-8.68-5.39-17.78-10.11-26.57-15.35C707.1,195,700.3,189.83,692.79,186c-12.71-6.5-25.91-3.34-38.51.35-16.88,4.93-33.42,11-50,16.63-3.48,1.18-7.33,2-10.11,4.24a9.94,9.94,0,0,0-3.41,7.64c.21,1.95,3.41,4.65,5.63,5.07a29.68,29.68,0,0,0,11.43-.62c16-3.58,31.92-7.58,47.93-11.19,4.86-1.11,10.77-3.54,14.62-1.8,14.42,6.39,28.17,14.2,42.1,21.67.87.49,1.63,3.16,1.11,3.85-.8,1.12-3,2.23-4.13,1.85a89.74,89.74,0,0,1-12.09-5.42c-9-4.8-17.82-10.08-27.06-14.38-2.12-1-6.94.41-8.4,2.33a7.16,7.16,0,0,0,1.25,10.38c1.49,1.22,2.91,2.57,4.48,3.68,15,10.6,30.28,20.7,44.91,31.78,19.34,14.66,40.36,22.4,64.88,19.49,3.26-.38,4.2-1.46,4.1-4.69C781.26,269.65,781.43,262.46,781.43,255.3Z"/><path class="cls-5" d="M449.46,582.42c1.46,19.9,6.32,38.9,15.42,56.64A16.31,16.31,0,0,0,475,646.74c8.51,1.67,17.37,1.63,27.3,2.4-5.87-3.2-10.32-5.66-14.8-8.1l.84-2.77c4.86-.87,9.9-1.22,14.62-2.68q17.93-5.58,35.53-12c3.2-1.15,5.8-3.65,2.5-7.54-8.65-10.21-14.13-22.16-18-34.8-1.35-4.48-3.72-5.38-8-5.28-19.73.38-39.45.66-59.15.42C450.74,576.27,449.11,577.69,449.46,582.42Z"/><path class="cls-3" d="M531,635.9c-7.16,2.78-14.66,4.66-22,6.92.1.59.21,1.18.28,1.73,9.48-1.32,19.13-1.87,28.44-4.06,29.49-7,53.46-22,68.63-49.15,2.16-3.85,3.55-9.55,6.81-11s8.2,1.73,12.4,2.81c.28.07.66-.28,1.15-.52C620.34,569.6,614,556.54,607.35,543l-36.12,28.69c4.83,1,8.13,1.91,11.46,2.4s4,2.08,2.88,5.2C575.78,606.31,557.86,625.48,531,635.9Z"/><path class="cls-3" d="M791.09,214.53q0,37.71,0,75.47c0,3.34,1.63,4.38,4.69,4.34,9.27-.07,18.54,0,28.2,0v-81.8H791.71A9.32,9.32,0,0,0,791.09,214.53Zm14,60.29c4,.35,6.56,2.89,6.36,6.81-.25,4.27-3.55,6.46-7.58,6.36-3.54-.07-6.25-1.95-6.18-6.12S800.85,274.48,805.05,274.82Z"/><path class="cls-3" d="M486.13,213.07c-9.23-.35-18.51-.17-29.21-.17,0,25.63,0,50.57.11,75.5,0,1.12,1.53,3.13,2.4,3.13,10.35.21,20.73.14,31.39.14,0-25.7.07-50.26-.2-74.85C490.58,215.5,487.73,213.1,486.13,213.07Zm-9.41,18c-4.37,0-6.84-2.82-6.74-7s2.71-6.73,7-6.84,6,2.68,6.25,6.57C483.11,228.21,481.2,231.1,476.72,231.1Z"/><path class="cls-3" d="M626.28,274c11.39,0,22.75,0,34.8,0V243.15c-11.91,0-23.68-.14-35.42.17-1.43,0-3.86,2.43-4,3.86-.39,7.33,0,14.69-.25,22C621.38,272.77,623,274,626.28,274Z"/><path class="cls-3" d="M641.18,239.22c7.82.35,7.82.35,8.06-3.64.42-6.85-1-8.58-7.43-8.86-6.67-.28-8.34,1.28-8.69,7.57C632.67,241.9,638.54,238.08,641.18,239.22Z"/><path class="cls-6" d="M828.32,556a213.86,213.86,0,0,0-3-36.5c-4.45-26.78-13.79-50.51-28.34-70.82-2.44-3.13-5-6.22-7.82-9.24,0,0-21.46-30.12-77-52.24l-47.79,62.17c10.7,3.06,21.54,5.7,31.68,10.07,20,8.62,35.36,21.09,45.67,37.48a84.82,84.82,0,0,1,14.31,42.37,105.87,105.87,0,0,1-4.76,46.23c-6,21.4-19.83,48.56-51.12,63.56-19.63,10.84-42.59,14.76-67.84,13.41-12.15-.66-23.16-.17-34.83,4.1-27.06,9.93-55.19,12.4-84.06,10a122.26,122.26,0,0,1-18.89-3.09c-4-.63-8.13-1.32-12.33-2.15,0,0,69.14,90.2,96,96.41,0,0,65.65,18,116.68-.62,0,0,83.42-49.08,116.73-128.34,2.3-5.73,4.34-11.49,6.19-17.29A266.89,266.89,0,0,0,828.32,556Z"/></g></svg>