<svg id="Layer_1" data-name="Layer 1" xmlns="http://www.w3.org/2000/svg" xmlns:xlink="http://www.w3.org/1999/xlink" viewBox="0 0 196 196"><defs><style>.cls-1{fill:none;}.cls-2{clip-path:url(#clip-path);}.cls-3{fill:#2d636e;}.cls-4{fill:#dea43d;}.cls-5{fill:#e3a53c;}.cls-6{fill:#dc9e37;}</style><clipPath id="clip-path"><ellipse class="cls-1" cx="98" cy="98" rx="92.81" ry="93.22"/></clipPath></defs><g class="cls-2"><path class="cls-1" d="M57,52.07a1.65,1.65,0,0,0-1.76,1.72A1.58,1.58,0,0,0,57,55.54c1.13,0,1.61-.73,1.65-1.82S58.13,52,57,52.07Z"/><path class="cls-1" d="M139.19,69.85a1.69,1.69,0,0,0,1.9-1.6,1.58,1.58,0,0,0-1.6-1.71,1.7,1.7,0,0,0-1.86,1.78A1.42,1.42,0,0,0,139.19,69.85Z"/><path class="cls-1" d="M114.46,119.28c2.77,6.51,5.51,12.9,8.41,19.7-2.31-.69-4.17-1.16-6-1.81-.91-.33-1.32-.29-1.77.67a43.85,43.85,0,0,1-10.7,14.45c-12.6,11-27,15.66-43.66,12a31.55,31.55,0,0,1-4.68-1.61,10.47,10.47,0,0,1-2.16-1.23,41.6,41.6,0,0,0,35.09-7,37.78,37.78,0,0,0,14.54-20.51l-7.29-1.78ZM83.59,141.76c-.83-.12-1.66-.34-2.88-.6L89.79,134c1.66,3.41,3.27,6.69,4.87,10-.13.06-.22.14-.29.13-1.07-.27-2.33-1.06-3.12-.71s-1.16,1.79-1.71,2.76c-3.82,6.82-9.84,10.6-17.25,12.35-2.33.55-4.77.7-7.15,1a3.64,3.64,0,0,1-.07-.44c1.85-.58,3.73-1.05,5.53-1.74a22.86,22.86,0,0,0,13.71-14.22C84.6,142.28,84.47,141.89,83.59,141.76Zm-31.89.57c5,.06,9.92,0,14.87-.11,1.07,0,1.67.21,2,1.33a24.11,24.11,0,0,0,4.52,8.75c.83,1,.17,1.61-.63,1.89q-4.43,1.62-8.93,3a31.82,31.82,0,0,1-3.68.67l-.21.7,3.72,2a58.42,58.42,0,0,1-6.86-.6A4.12,4.12,0,0,1,54,158.08a36.73,36.73,0,0,1-3.88-14.24C50,142.67,50.42,142.31,51.7,142.33Zm8.79-71.57c-2.68,0-5.28,0-7.89,0-.22,0-.6-.51-.6-.78,0-6.27,0-12.53,0-19,2.69,0,5-.05,7.34,0,.4,0,1.12.61,1.13.94C60.51,58.12,60.49,64.3,60.49,70.76Zm50,1.74c-3.12,1.22-6.25,2.4-9.43,3.43-3.61,1.16-7.29,2-10.9,3.22A4.82,4.82,0,0,1,86,78.44c-3.14-1.85-6.22-3.8-9.34-5.69-2-1.24-4.11-2.39-6.11-3.69a11.4,11.4,0,0,0-6.65-1.82c-.9,0-1.31-.22-1.26-1.24.08-1.65,0-3.31,0-5h.2c0-1.7-.06-3.4.05-5.11,0-.42.53-1.18.84-1.19,3.52-.09,7.18-.82,10.53.58a48.75,48.75,0,0,1,7.39,4.28C85,61.75,88.31,64,91.57,66.28a3.7,3.7,0,0,1,1.56,1.85c.5,2.26-.77,3.38-2.88,2.45-1.74-.76-3.25-2-5-2.9a29.11,29.11,0,0,0-4-1.65.9.9,0,0,0-.83.34,1.06,1.06,0,0,0,.23,1c1.34.94,2.7,1.85,4.11,2.68,1,.61,2.23,1,3.24,1.65,2.7,1.76,5.45.92,8.18.24,4.1-1,8.16-2.21,12.27-3.16a3.89,3.89,0,0,1,2.7.66C112.42,70.27,112.05,71.89,110.49,72.5ZM93.41,59.58a1.39,1.39,0,0,1,1-1c2.95-.07,5.91,0,8.91,0v7.74H94.56c-.84,0-1.23-.3-1.2-1.2C93.39,63.27,93.3,61.43,93.41,59.58Zm2.85-3.23c.09-1.58.51-2,2.19-1.9s2,.5,1.86,2.23c-.06,1-.06,1-2,.91C97.63,57.3,96.16,58.26,96.26,56.35ZM132.54,68.2c-6.15.73-11.45-1.22-16.31-4.9-3.68-2.78-7.53-5.32-11.29-8-.39-.28-.75-.62-1.13-.92a1.81,1.81,0,0,1-.31-2.61,2.31,2.31,0,0,1,2.11-.59c2.33,1.08,4.54,2.41,6.81,3.62a23.54,23.54,0,0,0,3,1.36,1.28,1.28,0,0,0,1-.46,1,1,0,0,0-.28-1c-3.49-1.88-7-3.84-10.58-5.45-1-.43-2.46.18-3.67.45-4,.91-8,1.91-12,2.81a7.4,7.4,0,0,1-2.88.16,2,2,0,0,1-1.41-1.27,2.52,2.52,0,0,1,.85-1.92A8.55,8.55,0,0,1,89,48.45c4.18-1.42,8.33-2.94,12.58-4.18,3.17-.93,6.48-1.73,9.68-.09,1.89,1,3.6,2.26,5.42,3.35,2.21,1.32,4.5,2.51,6.68,3.86,2.82,1.75,5.56,3.59,9.12,3.44.31,0,.91.79.94,1.23.1,1.85,0,3.7,0,5.55h.08c0,1.8,0,3.6,0,5.4C133.6,67.83,133.36,68.1,132.54,68.2Zm11.71,3.24c-2.43,0-4.76,0-7.09,0-.77,0-1.18-.26-1.18-1.09q0-9.48,0-19a1.7,1.7,0,0,1,.16-.49h8.11Z"/><path class="cls-3" d="M98.85,4.81A92.89,92.89,0,0,0,4.93,97.4c0,25.72,9,48.15,27.11,66.46,22,22.21,49.07,30.24,79.77,26.42,38.58-4.81,79.12-39.65,79.26-92A93,93,0,0,0,98.85,4.81Zm40.89,157a3,3,0,0,1,.1-.7c.46-1,.9-2,1.31-3-8.37,19.92-29.49,30.88-29.49,30.88-12.82,4.67-29,.45-29,.45-6.75-1.56-24.3-23.15-24.3-23.15,1.06.21,2.1.38,3.1.54a31.55,31.55,0,0,1-13.12-7,10.12,10.12,0,0,1-1.07-1.27l.24-.45,4,.62c-20.38-16-30.29-37.24-29.6-62.74s11.75-46.1,33.69-60.22A47.47,47.47,0,0,0,51.14,49h7.39c2.93,0,3.24.21,3.88,3,2.17,0,4.34,0,6.52,0,.25,0,.56-.57.71-.92,1.46-3.52,3.07-6.94,5.77-9.73a26.76,26.76,0,0,1,14.38-7.54,33.36,33.36,0,0,1,26.56,5.3,21.74,21.74,0,0,1,6.22,7.09,19.28,19.28,0,0,0,3.13,4.35c2.13,2,4.86,2.25,7.62,1.89.08-.14.17-.22.18-.31.29-2.91.52-3.19,3.45-3.32,2.08-.08,4.16,0,6.43,0a48.77,48.77,0,0,0-6-15.09c5.94,1.54,19.33,14.27,25.69,24.57A74,74,0,0,1,174,92.09C176.46,125.63,158.23,150.9,139.74,161.77Z"/><path class="cls-3" d="M105.67,91.25C98.31,89.39,91,87.16,83.83,84.82A21,21,0,0,1,70.7,73.13a6.65,6.65,0,0,0-7.27-3.76c-.31,0-.69.7-.75,1.11-.27,1.91-.7,2.36-2.61,2.37-2.91,0-5.83,0-9,0,.19,1,.3,1.79.52,2.61C54.56,86.09,61.09,93.82,70.75,99c6.3,3.37,13.13,5.32,19.93,7.34,4,1.2,8.1,2.44,12.14,3.68l1.33.39,12-15.63"/><path class="cls-3" d="M145.34,137.2a66.25,66.25,0,0,1-2.63,16.46A55.22,55.22,0,0,0,145.34,137.2Z"/><path class="cls-3" d="M89,154.44a41.63,41.63,0,0,1-35.1,7,10.47,10.47,0,0,0,2.16,1.23,35,35,0,0,0,4.68,1.61c16.64,3.65,31.06-1,43.66-12a43.85,43.85,0,0,0,10.7-14.45c.46-1,.87-1,1.77-.67,1.8.65,3.66,1.12,6,1.81l-8.41-19.7L96.26,132.15l7.29,1.78A37.72,37.72,0,0,1,89,154.44Z"/><path class="cls-4" d="M111.2,69.42a3.89,3.89,0,0,0-2.7-.66c-4.12.95-8.18,2.14-12.27,3.16-2.73.68-5.48,1.52-8.17-.24-1-.66-2.21-1-3.25-1.65C83.4,69.2,82,68.29,80.7,67.34a1.07,1.07,0,0,1-.23-1,.91.91,0,0,1,.84-.34,30.18,30.18,0,0,1,4,1.65c1.68.89,3.2,2.14,4.94,2.9,2.11.93,3.39-.19,2.88-2.45a3.75,3.75,0,0,0-1.56-1.85C88.3,64,85,61.75,81.67,59.6a48.3,48.3,0,0,0-7.38-4.28c-3.36-1.4-7-.67-10.54-.58-.31,0-.81.77-.84,1.19-.1,1.7,0,3.41,0,5.11h-.21c0,1.66.07,3.31,0,5,0,1,.37,1.26,1.26,1.24a11.31,11.31,0,0,1,6.65,1.82c2,1.3,4.08,2.45,6.11,3.69,3.12,1.89,6.2,3.84,9.34,5.69a4.85,4.85,0,0,0,4.15.71c3.6-1.17,7.29-2.06,10.9-3.22,3.18-1,6.31-2.21,9.43-3.44C112.05,71.89,112.42,70.27,111.2,69.42Z"/><path class="cls-4" d="M133.55,61.63h-.08c0-1.86.07-3.71,0-5.55,0-.44-.63-1.25-.94-1.23-3.56.15-6.3-1.69-9.12-3.44-2.18-1.35-4.47-2.54-6.68-3.86-1.82-1.08-3.53-2.38-5.42-3.35-3.19-1.63-6.51-.84-9.68.09C97.35,45.53,93.19,47,89,48.47a8.12,8.12,0,0,0-2.54,1.06,2.5,2.5,0,0,0-.86,1.92c0,.49.86,1.17,1.41,1.28a7.59,7.59,0,0,0,2.88-.16c4-.9,8-1.9,12-2.81,1.22-.28,2.7-.89,3.67-.45,3.63,1.6,7.08,3.57,10.58,5.44a1,1,0,0,1,.28,1,1.24,1.24,0,0,1-1,.47,22.3,22.3,0,0,1-3-1.37c-2.27-1.2-4.48-2.53-6.81-3.61a2.3,2.3,0,0,0-2.11.58,1.81,1.81,0,0,0,.32,2.62c.37.3.73.64,1.12.92,3.77,2.66,7.62,5.2,11.29,8,4.87,3.68,10.15,5.63,16.31,4.9.82-.1,1.06-.37,1-1.18C133.51,65.23,133.55,63.42,133.55,61.63Z"/><path class="cls-5" d="M50.1,143.86A36.78,36.78,0,0,0,54,158.1,4.13,4.13,0,0,0,56.51,160a60.85,60.85,0,0,0,6.86.6l-3.72-2,.21-.69a30.55,30.55,0,0,0,3.68-.68q4.5-1.4,8.93-3c.8-.29,1.46-.92.63-1.89a24.11,24.11,0,0,1-4.52-8.75c-.34-1.13-.94-1.36-2-1.33-5,.1-9.92.17-14.87.11C50.42,142.31,50,142.67,50.1,143.86Z"/><path class="cls-3" d="M70.6,157.3c-1.8.7-3.68,1.17-5.53,1.74,0,.15.05.3.07.44,2.38-.34,4.81-.48,7.15-1,7.41-1.74,13.43-5.53,17.25-12.35.54-1,.89-2.4,1.71-2.76s2.06.44,3.12.71c.07,0,.16-.07.29-.13-1.6-3.29-3.21-6.57-4.87-10l-9.08,7.21c1.22.26,2.05.48,2.88.6s1,.53.73,1.31A22.88,22.88,0,0,1,70.6,157.3Z"/><path class="cls-3" d="M136,51.38q0,9.48,0,19c0,.84.41,1.1,1.18,1.09,2.33,0,4.66,0,7.09,0V50.87h-8.11A2.34,2.34,0,0,0,136,51.38Zm3.51,15.15a1.58,1.58,0,0,1,1.6,1.71,1.68,1.68,0,0,1-1.9,1.6,1.42,1.42,0,0,1-1.56-1.53A1.71,1.71,0,0,1,139.49,66.53Z"/><path class="cls-3" d="M59.32,51C57,50.92,54.67,51,52,51c0,6.44,0,12.71,0,19,0,.28.39.78.61.78,2.6,0,5.21,0,7.89,0,0-6.46,0-12.64,0-18.82C60.44,51.62,59.72,51,59.32,51ZM57,55.54a1.57,1.57,0,0,1-1.69-1.75A1.66,1.66,0,0,1,57,52.07c1.11,0,1.52.67,1.58,1.65S58.08,55.54,57,55.54Z"/><path class="cls-3" d="M94.55,66.32h8.75V58.57c-3,0-6,0-8.91,0a1.42,1.42,0,0,0-1,1c-.1,1.85,0,3.7-.06,5.54C93.32,66,93.72,66.32,94.55,66.32Z"/><path class="cls-3" d="M98.3,57.58c2,.09,2,.09,2-.91.11-1.72-.26-2.16-1.87-2.23s-2.09.32-2.18,1.9C96.16,58.26,97.63,57.3,98.3,57.58Z"/><path class="cls-6" d="M145.34,137.2a54,54,0,0,0-.74-9.17,41.93,41.93,0,0,0-7.13-17.81c-.61-.78-1.26-1.56-2-2.32,0,0-5.4-7.57-19.35-13.13l-12,15.63a65.22,65.22,0,0,1,8,2.53,24.66,24.66,0,0,1,11.48,9.42,21.42,21.42,0,0,1,3.6,10.65,26.66,26.66,0,0,1-1.2,11.62c-1.52,5.38-5,12.21-12.85,16-4.93,2.73-10.7,3.71-17,3.37a21.2,21.2,0,0,0-8.76,1,48.77,48.77,0,0,1-21.13,2.52,30.37,30.37,0,0,1-4.75-.78c-1-.16-2-.33-3.1-.54,0,0,17.38,22.67,24.13,24.24,0,0,16.51,4.51,29.33-.16,0,0,21-12.34,29.35-32.26.57-1.44,1.09-2.89,1.55-4.35A66.91,66.91,0,0,0,145.34,137.2Z"/></g></svg>