<?xml version="1.0" encoding="utf-8"?>
<!-- Generator: Adobe Illustrator 25.4.1, SVG Export Plug-In . SVG Version: 6.00 Build 0)  -->
<svg version="1.1" id="Layer_1" xmlns="http://www.w3.org/2000/svg" xmlns:xlink="http://www.w3.org/1999/xlink" x="0px" y="0px"
	 viewBox="0 0 256 256" style="enable-background:new 0 0 256 256;" xml:space="preserve">
<style type="text/css">
	.st0{clip-path:url(#SVGID_00000103250895594283322440000015554963266667641506_);}
	.st1{fill:none;}
	.st2{fill:#2D636E;}
	.st3{fill:#DEA43D;}
	.st4{fill:#E3A53C;}
	.st5{fill:#DC9E37;}
</style>
<g>
	<g>
		<g>
			<defs>
				<ellipse id="SVGID_1_" cx="128" cy="128" rx="118.91" ry="119.43"/>
			</defs>
			<clipPath id="SVGID_00000144322515054540849970000008331791072144288703_">
				<use xlink:href="#SVGID_1_"  style="overflow:visible;"/>
			</clipPath>
			<g style="clip-path:url(#SVGID_00000144322515054540849970000008331791072144288703_);">
				<path class="st1" d="M75.5,69.15c-1.4,0.03-2.23,0.89-2.26,2.2C73.2,72.68,74,73.6,75.41,73.6c1.44,0,2.06-0.94,2.1-2.34
					C77.45,70.01,76.92,69.12,75.5,69.15z"/>
				<path class="st1" d="M180.76,91.94c1.3,0.02,2.36-0.67,2.44-2.05c0.08-1.26-0.75-2.08-2.05-2.19c-1.35-0.12-2.36,0.88-2.38,2.28
					C178.75,91.31,179.62,91.91,180.76,91.94z"/>
				<path class="st1" d="M149.09,155.26c3.56,8.34,7.06,16.53,10.77,25.25c-2.95-0.88-5.34-1.49-7.64-2.33
					c-1.17-0.43-1.69-0.37-2.27,0.86c-3.34,7.07-7.83,13.37-13.71,18.51c-16.14,14.09-34.61,20.06-55.93,15.39
					c-2.06-0.45-4.03-1.31-6-2.07c-0.96-0.37-1.85-0.93-2.76-1.58c16.38,3.78,31.39,0.76,44.96-8.99
					c9.08-6.53,15.32-15.19,18.62-26.28c-3.11-0.76-6.04-1.48-9.34-2.28C133.68,166.17,141.28,160.8,149.09,155.26z M109.54,184.06
					c-1.07-0.16-2.14-0.44-3.69-0.77c4.05-3.21,7.73-6.14,11.63-9.24c2.13,4.37,4.18,8.58,6.23,12.79
					c-0.16,0.08-0.28,0.19-0.37,0.17c-1.36-0.35-2.99-1.35-3.99-0.91c-1.04,0.46-1.49,2.29-2.19,3.53
					c-4.89,8.74-12.61,13.58-22.1,15.83c-2.99,0.7-6.11,0.89-9.16,1.31c-0.03-0.19-0.07-0.38-0.09-0.56
					c2.37-0.74,4.79-1.34,7.09-2.23c8.65-3.36,14.42-9.53,17.56-18.22C110.83,184.74,110.66,184.23,109.54,184.06z M68.68,184.79
					c6.35,0.08,12.71-0.01,19.05-0.13c1.38-0.02,2.14,0.27,2.57,1.7c1.24,4.07,3.01,7.92,5.79,11.21c1.06,1.26,0.22,2.06-0.81,2.43
					c-3.78,1.38-7.6,2.67-11.44,3.86c-1.51,0.47-3.13,0.58-4.71,0.86c-0.09,0.3-0.18,0.59-0.27,0.89c1.44,0.78,2.87,1.58,4.77,2.61
					c-3.2-0.25-6.05-0.22-8.79-0.77c-1.22-0.23-2.66-1.35-3.24-2.47c-2.93-5.7-4.5-11.83-4.97-18.24
					C66.52,185.23,67.05,184.77,68.68,184.79z M79.94,93.1c-3.43,0-6.77,0.02-10.11-0.04c-0.28-0.01-0.77-0.66-0.77-1.01
					c-0.04-8.03-0.03-16.05-0.03-24.32c3.45,0,6.43-0.06,9.41,0.06c0.51,0.02,1.43,0.78,1.44,1.21
					C79.97,76.91,79.94,84.82,79.94,93.1z M144,95.33c-3.99,1.57-8,3.08-12.08,4.4c-4.62,1.49-9.34,2.63-13.96,4.13
					c-2.05,0.66-3.71,0.04-5.31-0.91c-4.03-2.37-7.98-4.87-11.97-7.29c-2.61-1.59-5.27-3.06-7.83-4.72
					c-2.62-1.69-5.45-2.43-8.51-2.34c-1.16,0.03-1.69-0.28-1.62-1.59c0.11-2.11,0.03-4.24,0.03-6.36c0.09,0,0.17,0,0.26,0
					c0-2.18-0.08-4.36,0.06-6.54c0.03-0.55,0.68-1.52,1.07-1.53c4.52-0.11,9.21-1.05,13.5,0.75c3.33,1.4,6.4,3.51,9.46,5.48
					c4.28,2.76,8.49,5.65,12.66,8.57c0.84,0.58,1.8,1.47,2,2.37c0.65,2.9-0.98,4.33-3.69,3.14c-2.23-0.97-4.16-2.57-6.33-3.72
					c-1.62-0.86-3.38-1.48-5.11-2.11c-0.29-0.1-1,0.19-1.07,0.44c-0.11,0.36,0.02,1.05,0.3,1.24c1.71,1.21,3.46,2.37,5.26,3.43
					c1.34,0.78,2.86,1.28,4.16,2.11c3.46,2.26,6.98,1.19,10.47,0.31c5.26-1.31,10.46-2.83,15.73-4.05c1.05-0.25,2.53,0.21,3.46,0.85
					C146.48,92.47,146,94.54,144,95.33z M122.12,78.78c0.02-0.46,0.82-1.23,1.28-1.24c3.78-0.1,7.57-0.06,11.41-0.06
					c0,3.45,0,6.66,0,9.92c-3.88,0-7.54-0.01-11.21,0.01c-1.07,0-1.58-0.39-1.54-1.54C122.09,83.5,121.98,81.14,122.12,78.78z
					 M125.77,74.64c0.11-2.02,0.65-2.53,2.8-2.44c2.07,0.09,2.53,0.64,2.39,2.85c-0.08,1.29-0.08,1.29-2.6,1.17
					C127.53,75.85,125.64,77.08,125.77,74.64z M172.25,89.82c-7.89,0.94-14.66-1.57-20.9-6.28c-4.71-3.57-9.64-6.82-14.46-10.24
					c-0.5-0.36-0.96-0.79-1.44-1.19c-1.22-0.98-1.13-2.38-0.4-3.34c0.47-0.62,2.02-1.06,2.71-0.75c2.98,1.38,5.81,3.09,8.71,4.63
					c1.25,0.66,2.56,1.28,3.89,1.75c0.35,0.12,1.06-0.25,1.33-0.59c0.17-0.22-0.08-1.09-0.36-1.24c-4.47-2.41-8.92-4.92-13.56-6.98
					c-1.24-0.55-3.15,0.23-4.71,0.58c-5.16,1.16-10.28,2.45-15.44,3.6c-1.2,0.27-2.51,0.41-3.68,0.2c-0.72-0.12-1.75-1-1.81-1.63
					c-0.09-0.79,0.45-1.95,1.1-2.46c0.89-0.69,2.14-0.98,3.26-1.36c5.36-1.82,10.68-3.77,16.12-5.36c4.06-1.19,8.31-2.21,12.41-0.11
					c2.42,1.24,4.61,2.9,6.95,4.3c2.83,1.69,5.76,3.21,8.56,4.94c3.61,2.24,7.13,4.6,11.68,4.41c0.4-0.02,1.17,1.01,1.21,1.58
					c0.13,2.36,0.06,4.73,0.06,7.1c0.03,0,0.07,0,0.1,0c0,2.3-0.06,4.62,0.02,6.92C173.61,89.35,173.3,89.7,172.25,89.82z
					 M187.25,93.97c-3.11,0-6.1-0.01-9.08,0.01c-0.98,0.01-1.51-0.34-1.51-1.4c0.01-8.1,0-16.21,0-24.31c0-0.18,0.1-0.35,0.2-0.64
					c3.32,0,6.66,0,10.39,0C187.25,76.42,187.25,85.02,187.25,93.97z"/>
				<path class="st2" d="M129.09,8.61C60.86,8.07,8.76,63.28,8.76,127.23c0,32.95,11.47,61.69,34.73,85.15
					c28.23,28.46,62.88,38.75,102.21,33.85c49.42-6.16,101.37-50.8,101.54-117.86C247.28,61.68,194,9.13,129.09,8.61z M181.47,209.7
					c0.06-0.38,0.03-0.67,0.13-0.91c0.59-1.3,1.15-2.6,1.68-3.9c-10.73,25.53-37.78,39.57-37.78,39.57
					c-16.43,5.98-37.18,0.57-37.18,0.57c-8.65-1.99-31.13-29.65-31.13-29.65c1.35,0.27,2.68,0.49,3.97,0.69
					c-6.25-1.53-11.78-4.59-16.81-8.9c-0.53-0.46-0.92-1.07-1.36-1.62c0.1-0.19,0.2-0.39,0.3-0.58c1.69,0.26,3.38,0.53,5.09,0.79
					c-26.11-20.47-38.82-47.71-37.92-80.38c0.89-32.72,15.05-59.06,43.16-77.15c-2.71,5.32-4.54,10.91-5.65,17.06
					c2.54,0,4.88,0,7.22,0c0.75,0,1.5-0.01,2.25-0.02c3.76-0.02,4.15,0.27,4.98,3.8c2.77,0,5.56,0.04,8.34-0.06
					c0.32-0.01,0.73-0.73,0.92-1.19c1.87-4.51,3.94-8.88,7.39-12.46c5.08-5.27,11.37-8.22,18.42-9.65
					c12.28-2.49,23.67-0.35,34.03,6.79c3.4,2.34,5.86,5.54,7.96,9.07c1.16,1.97,2.37,4.05,4.02,5.58c2.72,2.54,6.22,2.87,9.75,2.42
					c0.11-0.18,0.22-0.28,0.23-0.39c0.37-3.74,0.66-4.09,4.42-4.25c2.66-0.11,5.34-0.02,8.24-0.02c-1.69-7.04-3.98-13.43-7.71-19.33
					c7.62,1.97,24.77,18.28,32.92,31.48c8.22,13.29,12.8,27.86,13.95,43.38C228.52,163.39,205.16,195.78,181.47,209.7z"/>
				<path class="st2" d="M137.82,119.35c-9.42-2.38-18.74-5.24-27.98-8.24c-7.66-2.51-13.43-7.44-16.82-14.97
					c-1.61-3.59-5.46-5.49-9.31-4.82c-0.4,0.07-0.88,0.89-0.96,1.42c-0.35,2.45-0.89,3.02-3.34,3.03c-3.74,0.02-7.47,0-11.48,0
					c0.23,1.23,0.38,2.3,0.66,3.34c3.76,13.62,12.13,23.52,24.5,30.15c8.08,4.32,16.82,6.82,25.54,9.41
					c5.19,1.54,10.37,3.13,15.55,4.71c0.56,0.17,1.13,0.34,1.7,0.5l15.39-20.02"/>
				<path class="st2" d="M188.65,178.23c-0.26,9.31-2.21,17.17-3.37,21.09C187.45,192.43,188.62,185.41,188.65,178.23z"/>
				<path class="st2" d="M116.49,200.31c-13.57,9.75-28.58,12.77-44.96,8.99c0.92,0.65,1.8,1.21,2.76,1.58
					c1.98,0.75,3.95,1.61,6,2.07c21.32,4.68,39.79-1.29,55.93-15.39c5.88-5.15,10.37-11.44,13.71-18.51
					c0.58-1.23,1.11-1.29,2.27-0.86c2.3,0.84,4.69,1.44,7.64,2.33c-3.71-8.71-7.22-16.9-10.77-25.25
					c-7.81,5.53-15.4,10.9-23.3,16.49c3.3,0.81,6.22,1.52,9.34,2.28C131.81,185.12,125.57,193.79,116.49,200.31z"/>
				<path class="st3" d="M144.91,91.39c-0.93-0.64-2.41-1.1-3.46-0.85c-5.28,1.22-10.48,2.74-15.73,4.05
					c-3.49,0.87-7.01,1.95-10.47-0.31c-1.3-0.84-2.82-1.33-4.16-2.11c-1.8-1.06-3.55-2.23-5.26-3.43c-0.28-0.2-0.41-0.88-0.3-1.24
					c0.08-0.25,0.78-0.54,1.07-0.44c1.73,0.64,3.49,1.25,5.11,2.11c2.16,1.14,4.11,2.75,6.33,3.72c2.71,1.19,4.34-0.25,3.69-3.14
					c-0.2-0.91-1.17-1.79-2-2.37c-4.17-2.92-8.38-5.82-12.66-8.57c-3.06-1.98-6.13-4.08-9.46-5.48c-4.3-1.8-8.97-0.86-13.5-0.75
					c-0.39,0.01-1.04,0.98-1.07,1.53c-0.12,2.17-0.06,4.36-0.06,6.54c-0.09,0-0.17,0-0.26,0c0,2.13,0.08,4.24-0.03,6.36
					c-0.07,1.31,0.47,1.62,1.62,1.59c3.06-0.1,5.9,0.65,8.51,2.34c2.56,1.66,5.22,3.13,7.83,4.72c3.99,2.43,7.94,4.92,11.97,7.29
					c1.6,0.94,3.27,1.57,5.31,0.91c4.61-1.5,9.34-2.64,13.96-4.13c4.07-1.32,8.09-2.83,12.08-4.4
					C146,94.54,146.48,92.47,144.91,91.39z"/>
				<path class="st3" d="M173.55,81.4c-0.03,0-0.07,0-0.1,0c0-2.37,0.08-4.74-0.06-7.1c-0.03-0.57-0.81-1.6-1.21-1.58
					c-4.55,0.19-8.07-2.17-11.68-4.41c-2.8-1.73-5.73-3.26-8.56-4.94c-2.34-1.39-4.53-3.05-6.95-4.3
					c-4.09-2.09-8.34-1.07-12.41,0.11c-5.44,1.59-10.76,3.53-16.12,5.36c-1.12,0.38-2.36,0.66-3.26,1.36
					c-0.65,0.5-1.19,1.67-1.1,2.46c0.07,0.63,1.1,1.5,1.81,1.63c1.19,0.21,2.48,0.07,3.68-0.2c5.16-1.15,10.28-2.44,15.44-3.6
					c1.57-0.36,3.47-1.14,4.71-0.58c4.64,2.06,9.07,4.58,13.56,6.98c0.28,0.16,0.53,1.02,0.36,1.24c-0.26,0.36-0.97,0.72-1.33,0.59
					c-1.34-0.47-2.64-1.09-3.89-1.75c-2.91-1.54-5.74-3.24-8.71-4.63c-0.68-0.31-2.24,0.13-2.71,0.75c-0.73,0.96-0.83,2.36,0.4,3.34
					c0.48,0.39,0.94,0.83,1.44,1.19c4.82,3.41,9.75,6.67,14.46,10.24c6.23,4.72,13,7.22,20.9,6.28c1.05-0.12,1.35-0.47,1.32-1.51
					C173.49,86.02,173.55,83.7,173.55,81.4z"/>
				<path class="st4" d="M66.63,186.75c0.47,6.41,2.04,12.53,4.97,18.24c0.57,1.12,2.02,2.24,3.24,2.47
					c2.74,0.54,5.59,0.53,8.79,0.77c-1.89-1.03-3.32-1.82-4.77-2.61c0.09-0.3,0.18-0.59,0.27-0.89c1.57-0.28,3.19-0.39,4.71-0.86
					c3.85-1.2,7.66-2.48,11.44-3.86c1.03-0.37,1.87-1.17,0.81-2.43c-2.79-3.29-4.55-7.14-5.79-11.21c-0.44-1.44-1.2-1.73-2.57-1.7
					c-6.35,0.12-12.71,0.21-19.05,0.13C67.05,184.77,66.52,185.23,66.63,186.75z"/>
				<path class="st2" d="M92.9,203.98c-2.3,0.89-4.72,1.5-7.09,2.23c0.03,0.19,0.07,0.38,0.09,0.56c3.05-0.43,6.16-0.6,9.16-1.31
					c9.5-2.24,17.22-7.09,22.1-15.83c0.69-1.24,1.14-3.08,2.19-3.53c1.01-0.44,2.64,0.56,3.99,0.91c0.09,0.02,0.21-0.09,0.37-0.17
					c-2.05-4.21-4.11-8.41-6.23-12.79c-3.92,3.11-7.6,6.03-11.63,9.24c1.55,0.34,2.62,0.62,3.69,0.77c1.12,0.17,1.3,0.67,0.93,1.68
					C107.32,194.45,101.54,200.62,92.9,203.98z"/>
				<path class="st2" d="M176.66,68.27c0,8.1,0.01,16.21,0,24.31c0,1.07,0.53,1.41,1.51,1.4c2.99-0.02,5.97-0.01,9.08-0.01
					c0-8.95,0-17.55,0-26.34c-3.72,0-7.07,0-10.39,0C176.77,67.92,176.66,68.09,176.66,68.27z M181.16,87.69
					c1.3,0.11,2.11,0.93,2.05,2.19c-0.08,1.38-1.14,2.08-2.44,2.05c-1.14-0.02-2.01-0.63-1.99-1.97
					C178.8,88.57,179.8,87.57,181.16,87.69z"/>
				<path class="st2" d="M78.45,67.8c-2.98-0.11-5.96-0.06-9.41-0.06c0,8.26-0.01,16.29,0.03,24.32c0,0.36,0.49,1.01,0.77,1.01
					c3.33,0.07,6.68,0.04,10.11,0.04c0-8.28,0.02-16.19-0.07-24.11C79.88,68.58,78.96,67.81,78.45,67.8z M75.41,73.6
					c-1.41,0-2.2-0.91-2.17-2.25c0.04-1.32,0.87-2.17,2.26-2.2c1.42-0.03,1.95,0.86,2.01,2.11C77.47,72.67,76.86,73.6,75.41,73.6z"
					/>
				<path class="st2" d="M123.58,87.42c3.67-0.01,7.33-0.01,11.21-0.01c0-3.28,0-6.48,0-9.92c-3.84,0-7.63-0.04-11.41,0.06
					c-0.46,0.01-1.24,0.78-1.28,1.24c-0.12,2.36-0.01,4.73-0.08,7.09C122,87.03,122.52,87.42,123.58,87.42z"/>
				<path class="st2" d="M128.38,76.22c2.52,0.11,2.52,0.11,2.6-1.17c0.13-2.2-0.34-2.76-2.39-2.85c-2.15-0.09-2.68,0.41-2.8,2.44
					C125.64,77.08,127.53,75.85,128.38,76.22z"/>
				<path class="st5" d="M188.65,178.23c0.02-3.88-0.29-7.8-0.95-11.76c-1.43-8.62-4.44-16.26-9.13-22.81
					c-0.78-1.01-1.62-2-2.52-2.98c0,0-6.91-9.7-24.79-16.82l-15.39,20.02c3.45,0.98,6.94,1.83,10.2,3.24
					c6.43,2.77,11.39,6.79,14.71,12.07c2.47,3.65,4.22,8.14,4.61,13.65c0.6,5.18,0.04,10.15-1.53,14.89
					c-1.95,6.89-6.39,15.64-16.47,20.47c-6.32,3.49-13.71,4.75-21.85,4.32c-3.92-0.21-7.46-0.06-11.22,1.32
					c-8.71,3.2-17.77,3.99-27.07,3.22c-2.1-0.18-4.13-0.51-6.09-1c-1.3-0.2-2.62-0.43-3.97-0.69c0,0,22.27,29.05,30.92,31.05
					c0,0,21.14,5.78,37.58-0.2c0,0,26.87-15.81,37.6-41.33c0.74-1.85,1.4-3.7,1.99-5.57C186.44,195.4,188.38,187.53,188.65,178.23z"
					/>
			</g>
		</g>
	</g>
</g>
</svg>
