<svg id="Layer_1" data-name="Layer 1" xmlns="http://www.w3.org/2000/svg" xmlns:xlink="http://www.w3.org/1999/xlink" viewBox="0 0 32 32"><defs><style>.cls-1{fill:none;}.cls-2{clip-path:url(#clip-path);}.cls-3{fill:#2d636e;}.cls-4{fill:#dea43d;}.cls-5{fill:#e3a53c;}.cls-6{fill:#dc9e37;}</style><clipPath id="clip-path"><ellipse class="cls-1" cx="16" cy="16" rx="13.97" ry="14.03"/></clipPath></defs><g class="cls-2"><path class="cls-1" d="M9.83,9.08a.25.25,0,0,0-.26.26.24.24,0,0,0,.25.27c.17,0,.24-.11.25-.28S10,9.08,9.83,9.08Z"/><path class="cls-1" d="M22.2,11.76a.26.26,0,0,0,.29-.24.24.24,0,0,0-.24-.26.26.26,0,0,0-.28.27A.21.21,0,0,0,22.2,11.76Z"/><path class="cls-1" d="M18.48,19.2l1.26,3c-.34-.1-.62-.17-.89-.27s-.2,0-.27.1A6.51,6.51,0,0,1,17,24.17,7.19,7.19,0,0,1,10.4,26a4.23,4.23,0,0,1-.71-.24,1.18,1.18,0,0,1-.32-.19,6.26,6.26,0,0,0,5.28-1.05,5.71,5.71,0,0,0,2.19-3.09l-1.1-.27Zm-4.65,3.39-.43-.09,1.36-1.09c.25.52.5,1,.74,1.5,0,0,0,0-.05,0s-.35-.16-.47-.1-.17.27-.25.41a3.8,3.8,0,0,1-2.6,1.86,9.69,9.69,0,0,1-1.08.16s0-.05,0-.07c.28-.09.56-.16.84-.26a3.47,3.47,0,0,0,2.06-2.14C14,22.67,14,22.61,13.83,22.59ZM9,22.67c.75,0,1.49,0,2.24,0a.25.25,0,0,1,.3.2,3.57,3.57,0,0,0,.68,1.31c.13.15,0,.25-.09.29q-.67.24-1.35.45a3.53,3.53,0,0,1-.55.1l0,.11.56.31a8.16,8.16,0,0,1-1-.1A.58.58,0,0,1,9.37,25a5.5,5.5,0,0,1-.58-2.14C8.78,22.72,8.84,22.67,9,22.67ZM10.35,11.9H9.17s-.1-.07-.1-.11V8.92h1.11a.28.28,0,0,1,.17.15C10.36,10,10.35,10.93,10.35,11.9Zm7.53.26c-.47.18-.94.36-1.42.52s-1.1.31-1.64.48a.7.7,0,0,1-.62-.1c-.48-.28-.94-.58-1.41-.86-.31-.19-.62-.36-.92-.56a1.77,1.77,0,0,0-1-.27c-.14,0-.2,0-.19-.19s0-.5,0-.75h0c0-.25,0-.51,0-.76,0-.07.08-.18.12-.18a3.69,3.69,0,0,1,1.59.08,8.25,8.25,0,0,1,1.11.65c.51.32,1,.66,1.49,1a.64.64,0,0,1,.24.28c.07.34-.12.51-.44.37s-.49-.3-.74-.43a3.46,3.46,0,0,0-.6-.25.12.12,0,0,0-.13.05s0,.12,0,.14a6.65,6.65,0,0,0,.62.41c.15.09.33.15.48.25a1.43,1.43,0,0,0,1.23,0c.62-.15,1.23-.33,1.85-.47a.55.55,0,0,1,.41.1C18.17,11.83,18.11,12.07,17.88,12.16Zm-2.57-1.94a.19.19,0,0,1,.15-.15H16.8v1.17H15.48c-.12,0-.18,0-.18-.18S15.29,10.49,15.31,10.22Zm.43-.49c0-.24.07-.3.33-.29s.29.08.28.34,0,.15-.31.14C15.94,9.87,15.72,10,15.74,9.73Zm5.46,1.78a3.32,3.32,0,0,1-2.46-.73c-.55-.42-1.13-.81-1.7-1.21l-.16-.14A.26.26,0,0,1,16.83,9,.37.37,0,0,1,17.15,9c.35.17.68.37,1,.55a2.67,2.67,0,0,0,.46.2s.12,0,.15-.07,0-.12,0-.14c-.52-.29-1-.58-1.59-.82-.15-.07-.37,0-.55.07-.61.13-1.21.28-1.82.42a1,1,0,0,1-.43,0c-.09,0-.21-.11-.21-.19a.4.4,0,0,1,.12-.29,1.68,1.68,0,0,1,.39-.16c.63-.21,1.25-.44,1.89-.63A1.9,1.9,0,0,1,18,7.9c.28.14.54.34.82.5l1,.58a2.39,2.39,0,0,0,1.37.52s.14.12.15.19c0,.27,0,.55,0,.83h0c0,.27,0,.54,0,.82C21.36,11.46,21.32,11.5,21.2,11.51ZM23,12H21.9c-.12,0-.18,0-.18-.16V9a.25.25,0,0,1,0-.07H23Z"/><path class="cls-3" d="M16.13,2A14,14,0,0,0,2,15.91a13.73,13.73,0,0,0,4.08,10,13.67,13.67,0,0,0,12,4A14,14,0,0,0,16.13,2ZM22.28,25.6s0-.08,0-.11l.2-.45a10.67,10.67,0,0,1-4.44,4.64,8.5,8.5,0,0,1-4.37.07c-1-.23-3.66-3.48-3.66-3.48l.47.08a4.7,4.7,0,0,1-2-1.05,1,1,0,0,1-.16-.19l0-.07.59.1a11.11,11.11,0,0,1-4.45-9.45A10.57,10.57,0,0,1,9.61,6.63a7,7,0,0,0-.66,2h1.11c.44,0,.49,0,.58.44h1s.09-.09.11-.14a4.47,4.47,0,0,1,.87-1.47,4.12,4.12,0,0,1,2.16-1.13,5,5,0,0,1,4,.8,3.3,3.3,0,0,1,.94,1.06,2.91,2.91,0,0,0,.47.66,1.32,1.32,0,0,0,1.15.28l0,0c.05-.44.08-.48.52-.5s.63,0,1,0a7.7,7.7,0,0,0-.9-2.28c.89.24,2.91,2.15,3.86,3.7a11,11,0,0,1,1.64,5.1A11.18,11.18,0,0,1,22.28,25.6Z"/><path class="cls-3" d="M17.15,15c-1.1-.28-2.2-.61-3.28-1a3.2,3.2,0,0,1-2-1.76,1,1,0,0,0-1.09-.57c-.05,0-.11.11-.12.17,0,.28-.1.35-.39.35H8.94c0,.15.05.27.08.4a5.55,5.55,0,0,0,2.88,3.54,15.19,15.19,0,0,0,3,1.1l1.83.56.2.06,1.8-2.36"/><path class="cls-3" d="M23.13,21.9a9.7,9.7,0,0,1-.4,2.48A8.36,8.36,0,0,0,23.13,21.9Z"/><path class="cls-3" d="M14.65,24.5a6.28,6.28,0,0,1-5.29,1.05,1.4,1.4,0,0,0,.33.19,4.45,4.45,0,0,0,.7.24A7.2,7.2,0,0,0,17,24.17,6.65,6.65,0,0,0,18.58,22c.07-.15.13-.15.26-.1.28.1.56.17.9.27-.43-1-.85-2-1.26-3l-2.74,1.94,1.1.27A5.76,5.76,0,0,1,14.65,24.5Z"/><path class="cls-4" d="M18,11.7a.56.56,0,0,0-.41-.1c-.62.14-1.23.32-1.85.47a1.43,1.43,0,0,1-1.23,0c-.15-.1-.33-.16-.49-.25l-.61-.4a.17.17,0,0,1,0-.15s.09-.06.13-.05a4.47,4.47,0,0,1,.6.25c.25.13.48.32.74.43s.51,0,.44-.37a.57.57,0,0,0-.24-.27c-.49-.35-1-.69-1.49-1a7.25,7.25,0,0,0-1.11-.64,3.54,3.54,0,0,0-1.59-.09s-.12.11-.12.18c0,.25,0,.51,0,.77h0c0,.25,0,.49,0,.74s.05.19.19.19a1.71,1.71,0,0,1,1,.28c.3.19.61.36.92.55l1.4.86a.73.73,0,0,0,.63.1c.54-.17,1.1-.31,1.64-.48s.95-.33,1.42-.52C18.11,12.07,18.17,11.83,18,11.7Z"/><path class="cls-4" d="M21.35,10.52h0c0-.27,0-.55,0-.83,0-.07-.09-.19-.14-.19A2.35,2.35,0,0,1,19.82,9c-.33-.21-.67-.39-1-.58s-.53-.36-.81-.51a1.9,1.9,0,0,0-1.46,0c-.64.19-1.26.42-1.89.63a1.52,1.52,0,0,0-.39.16.41.41,0,0,0-.13.29.29.29,0,0,0,.22.19,1,1,0,0,0,.43,0c.61-.13,1.21-.29,1.81-.42.19,0,.41-.14.56-.07.54.24,1.06.54,1.59.82a.17.17,0,0,1,0,.15.19.19,0,0,1-.15.07,3.82,3.82,0,0,1-.46-.21c-.34-.18-.68-.38-1-.54a.32.32,0,0,0-.31.08.28.28,0,0,0,0,.4l.17.14c.57.4,1.15.78,1.7,1.2a3.33,3.33,0,0,0,2.46.74c.12,0,.16-.06.15-.18Z"/><path class="cls-5" d="M8.79,22.9a5.5,5.5,0,0,0,.58,2.15.65.65,0,0,0,.38.29c.33.06.66.06,1,.09l-.56-.31,0-.1c.18,0,.37-.05.55-.1l1.35-.46c.12,0,.22-.14.09-.28a3.69,3.69,0,0,1-.68-1.32c-.05-.17-.14-.2-.3-.2-.75,0-1.5,0-2.24,0C8.84,22.67,8.78,22.72,8.79,22.9Z"/><path class="cls-3" d="M11.88,24.93c-.28.1-.56.17-.84.26a.13.13,0,0,1,0,.06c.36-.05.73-.07,1.08-.15a3.8,3.8,0,0,0,2.6-1.86c.08-.14.13-.36.25-.41s.31.06.47.1l.05,0-.74-1.5L13.4,22.5l.43.09c.13,0,.15.08.11.19A3.46,3.46,0,0,1,11.88,24.93Z"/><path class="cls-3" d="M21.72,9v2.86c0,.12.06.16.18.16H23V8.9H21.74A.45.45,0,0,0,21.72,9Zm.53,2.28a.25.25,0,0,1,.24.26.26.26,0,0,1-.29.24.21.21,0,0,1-.23-.23A.26.26,0,0,1,22.25,11.26Z"/><path class="cls-3" d="M10.18,8.93c-.35,0-.7,0-1.11,0,0,1,0,1.91,0,2.86,0,0,.05.12.09.12h1.18c0-1,0-1.9,0-2.83C10.35,9,10.24,8.93,10.18,8.93Zm-.36.68a.24.24,0,0,1-.25-.27.25.25,0,0,1,.26-.26c.17,0,.23.11.24.25S10,9.61,9.82,9.61Z"/><path class="cls-3" d="M15.48,11.23H16.8V10.06H15.46a.19.19,0,0,0-.15.15c0,.27,0,.55,0,.83S15.36,11.23,15.48,11.23Z"/><path class="cls-3" d="M16,9.92c.3,0,.3,0,.31-.14s0-.33-.28-.34-.32.05-.33.29S15.94,9.87,16,9.92Z"/><path class="cls-6" d="M23.13,21.9A8.22,8.22,0,0,0,23,20.52a6.23,6.23,0,0,0-1.07-2.68c-.09-.12-.19-.24-.29-.35a6.83,6.83,0,0,0-2.92-2l-1.8,2.36a8.24,8.24,0,0,1,1.19.38,3.66,3.66,0,0,1,1.73,1.42,3.11,3.11,0,0,1,.54,1.6A3.82,3.82,0,0,1,20.21,23a3.63,3.63,0,0,1-1.93,2.4,4.72,4.72,0,0,1-2.57.51,3.31,3.31,0,0,0-1.32.16,7.42,7.42,0,0,1-3.18.38c-.24,0-.48-.07-.71-.12L10,26.27s2.64,3.25,3.66,3.48a8.5,8.5,0,0,0,4.37-.07A10.67,10.67,0,0,0,22.5,25c.08-.22.16-.44.23-.66A9.7,9.7,0,0,0,23.13,21.9Z"/></g></svg>