<?xml version="1.0" encoding="utf-8"?>
<!-- Generator: Adobe Illustrator 25.4.1, SVG Export Plug-In . SVG Version: 6.00 Build 0)  -->
<svg version="1.1" id="Layer_1" xmlns="http://www.w3.org/2000/svg" xmlns:xlink="http://www.w3.org/1999/xlink" x="0px" y="0px"
	 viewBox="0 0 512 512" style="enable-background:new 0 0 512 512;" xml:space="preserve">
<style type="text/css">
	.st0{clip-path:url(#SVGID_00000054265866208857593320000015210787432386095022_);}
	.st1{fill:none;}
	.st2{fill:#2D636E;}
	.st3{fill:#DEA43D;}
	.st4{fill:#E3A53C;}
	.st5{fill:#DC9E37;}
</style>
<g>
	<g>
		<g>
			<defs>
				<ellipse id="SVGID_1_" cx="256" cy="256" rx="238.32" ry="239.37"/>
			</defs>
			<clipPath id="SVGID_00000082359490243910434780000009418996766008424863_">
				<use xlink:href="#SVGID_1_"  style="overflow:visible;"/>
			</clipPath>
			<g style="clip-path:url(#SVGID_00000082359490243910434780000009418996766008424863_);">
				<path class="st1" d="M150.79,138.05c-2.8,0.07-4.46,1.79-4.53,4.42c-0.09,2.67,1.52,4.51,4.35,4.51c2.89,0,4.13-1.88,4.21-4.69
					C154.69,139.78,153.63,137.98,150.79,138.05z"/>
				<path class="st1" d="M361.75,183.72c2.6,0.04,4.73-1.35,4.89-4.1c0.16-2.53-1.5-4.17-4.1-4.39c-2.71-0.25-4.73,1.77-4.78,4.57
					C357.72,182.46,359.47,183.67,361.75,183.72z"/>
				<path class="st1" d="M298.26,310.64c7.13,16.72,14.15,33.14,21.59,50.6c-5.92-1.77-10.69-2.98-15.31-4.66
					c-2.35-0.85-3.39-0.74-4.55,1.73c-6.7,14.17-15.69,26.79-27.49,37.1c-32.35,28.25-69.37,40.2-112.1,30.85
					c-4.13-0.9-8.07-2.62-12.02-4.15c-1.93-0.74-3.7-1.86-5.54-3.16c32.82,7.58,62.91,1.52,90.1-18.03
					c18.2-13.09,30.71-30.45,37.33-52.66c-6.23-1.52-12.11-2.96-18.72-4.57C267.39,332.5,282.61,321.73,298.26,310.64z
					 M219.01,368.37c-2.15-0.31-4.28-0.87-7.4-1.55c8.12-6.43,15.49-12.31,23.32-18.52c4.26,8.77,8.38,17.2,12.49,25.63
					c-0.31,0.16-0.56,0.38-0.74,0.34c-2.74-0.7-5.99-2.71-8-1.82c-2.08,0.92-2.98,4.6-4.39,7.08c-9.8,17.51-25.27,27.22-44.3,31.72
					c-5.99,1.41-12.24,1.79-18.36,2.62c-0.07-0.38-0.13-0.76-0.18-1.12c4.75-1.48,9.6-2.69,14.21-4.46
					c17.33-6.73,28.9-19.1,35.2-36.52C221.59,369.71,221.25,368.7,219.01,368.37z M137.11,369.82c12.73,0.16,25.47-0.02,38.18-0.27
					c2.76-0.04,4.28,0.54,5.16,3.41c2.49,8.16,6.03,15.87,11.61,22.46c2.13,2.53,0.45,4.13-1.61,4.87
					c-7.58,2.76-15.22,5.36-22.94,7.73c-3.03,0.94-6.28,1.17-9.44,1.73c-0.18,0.61-0.36,1.19-0.54,1.79
					c2.89,1.57,5.76,3.16,9.55,5.22c-6.41-0.49-12.13-0.45-17.62-1.55c-2.44-0.47-5.34-2.71-6.5-4.95
					c-5.87-11.43-9.01-23.72-9.95-36.57C132.78,370.7,133.84,369.78,137.11,369.82z M159.69,186.05c-6.88,0-13.56,0.04-20.27-0.09
					c-0.56-0.02-1.55-1.32-1.55-2.02c-0.09-16.1-0.07-32.17-0.07-48.74c6.91,0,12.89-0.11,18.85,0.11c1.03,0.04,2.87,1.57,2.89,2.42
					C159.73,153.61,159.69,169.46,159.69,186.05z M288.06,190.51c-8,3.14-16.03,6.17-24.21,8.81c-9.26,2.98-18.72,5.27-27.98,8.27
					c-4.1,1.32-7.44,0.09-10.65-1.82c-8.07-4.75-15.99-9.75-23.99-14.62c-5.22-3.18-10.56-6.14-15.69-9.46
					c-5.25-3.39-10.92-4.87-17.06-4.69c-2.33,0.07-3.39-0.56-3.25-3.18c0.22-4.24,0.07-8.5,0.07-12.76c0.18,0,0.34,0,0.52,0
					c0-4.37-0.16-8.74,0.11-13.12c0.07-1.1,1.37-3.05,2.15-3.07c9.06-0.22,18.45-2.11,27.06,1.5c6.68,2.8,12.82,7.04,18.97,10.99
					c8.59,5.54,17.02,11.32,25.38,17.17c1.68,1.17,3.61,2.94,4.01,4.75c1.3,5.81-1.97,8.68-7.4,6.3c-4.46-1.95-8.34-5.16-12.69-7.47
					c-3.25-1.73-6.77-2.96-10.25-4.24c-0.58-0.2-2,0.38-2.15,0.87c-0.22,0.72,0.04,2.11,0.61,2.49c3.43,2.42,6.93,4.75,10.54,6.88
					c2.69,1.57,5.74,2.56,8.34,4.24c6.93,4.53,13.99,2.38,20.98,0.63c10.54-2.62,20.96-5.67,31.52-8.12
					c2.11-0.49,5.07,0.43,6.93,1.7C293.04,184.8,292.07,188.94,288.06,190.51z M244.21,157.35c0.04-0.92,1.64-2.47,2.56-2.49
					c7.58-0.2,15.18-0.11,22.87-0.11c0,6.91,0,13.34,0,19.89c-7.78,0-15.11-0.02-22.46,0.02c-2.15,0-3.16-0.78-3.09-3.09
					C244.16,166.82,243.94,162.08,244.21,157.35z M251.54,149.06c0.22-4.06,1.3-5.07,5.6-4.89c4.15,0.18,5.07,1.28,4.8,5.72
					c-0.16,2.58-0.16,2.58-5.2,2.35C255.06,151.48,251.27,153.95,251.54,149.06z M344.69,179.48c-15.81,1.88-29.39-3.14-41.88-12.58
					c-9.44-7.15-19.33-13.68-28.99-20.51c-1.01-0.72-1.93-1.59-2.89-2.38c-2.44-1.97-2.26-4.78-0.81-6.7
					c0.94-1.23,4.06-2.13,5.43-1.5c5.96,2.76,11.64,6.19,17.46,9.28c2.51,1.32,5.13,2.56,7.8,3.5c0.7,0.25,2.13-0.49,2.67-1.19
					c0.34-0.45-0.16-2.17-0.72-2.49c-8.97-4.82-17.87-9.86-27.17-13.99c-2.49-1.1-6.32,0.47-9.44,1.17
					c-10.34,2.33-20.6,4.91-30.94,7.22c-2.4,0.54-5.02,0.83-7.38,0.4c-1.43-0.25-3.5-2-3.63-3.27c-0.18-1.59,0.9-3.9,2.2-4.93
					c1.79-1.39,4.28-1.97,6.52-2.74c10.74-3.65,21.41-7.56,32.31-10.74c8.14-2.38,16.66-4.44,24.86-0.22
					c4.84,2.49,9.24,5.81,13.92,8.61c5.67,3.39,11.55,6.43,17.15,9.91c7.24,4.48,14.28,9.21,23.41,8.83
					c0.81-0.04,2.35,2.02,2.42,3.16c0.27,4.73,0.11,9.48,0.11,14.24c0.07,0,0.13,0,0.2,0c0,4.62-0.11,9.26,0.04,13.88
					C347.4,178.54,346.8,179.24,344.69,179.48z M374.76,187.8c-6.23,0-12.22-0.02-18.2,0.02c-1.97,0.02-3.03-0.67-3.03-2.8
					c0.02-16.23,0-32.49,0-48.72c0-0.36,0.2-0.7,0.4-1.28c6.66,0,13.34,0,20.83,0C374.76,152.62,374.76,169.86,374.76,187.8z"/>
				<path class="st2" d="M258.17,16.72C121.44,15.64,17.01,126.28,17.01,254.45c0,66.05,22.98,123.64,69.61,170.66
					c56.59,57.04,126.02,77.66,204.85,67.84c99.05-12.35,203.17-101.81,203.5-236.21C495.06,123.07,388.27,17.75,258.17,16.72z
					 M363.17,419.75c0.11-0.76,0.07-1.35,0.27-1.82c1.19-2.6,2.31-5.2,3.36-7.82c-21.5,51.16-75.71,79.3-75.71,79.3
					c-32.93,11.99-74.52,1.14-74.52,1.14c-17.33-3.99-62.39-59.43-62.39-59.43c2.71,0.54,5.38,0.99,7.96,1.39
					c-12.53-3.07-23.61-9.19-33.7-17.85c-1.05-0.92-1.84-2.15-2.74-3.25c0.2-0.38,0.4-0.78,0.61-1.17c3.39,0.52,6.77,1.05,10.2,1.59
					c-52.33-41.03-77.8-95.62-76-161.11C62.3,185.15,90.66,132.36,147,96.1c-5.43,10.67-9.1,21.86-11.32,34.19
					c5.09,0,9.77,0,14.46,0c1.5,0,3-0.02,4.51-0.04c7.53-0.04,8.32,0.54,9.98,7.62c5.56,0,11.14,0.09,16.72-0.11
					c0.65-0.02,1.46-1.46,1.84-2.38c3.74-9.04,7.89-17.8,14.82-24.98c10.18-10.56,22.78-16.48,36.92-19.35
					c24.62-5,47.44-0.69,68.2,13.61c6.82,4.69,11.75,11.1,15.96,18.18c2.33,3.95,4.75,8.12,8.05,11.19
					c5.45,5.09,12.47,5.76,19.55,4.84c0.22-0.36,0.45-0.56,0.47-0.78c0.74-7.49,1.32-8.21,8.86-8.52
					c5.34-0.22,10.69-0.04,16.52-0.04c-3.39-14.1-7.98-26.93-15.45-38.74c15.27,3.95,49.64,36.63,65.98,63.09
					c16.48,26.63,25.65,55.85,27.96,86.94C457.46,326.94,410.65,391.84,363.17,419.75z"/>
				<path class="st2" d="M275.68,238.67c-18.88-4.78-37.55-10.49-56.07-16.52c-15.36-5.02-26.93-14.91-33.72-30
					c-3.23-7.2-10.94-11.01-18.65-9.66c-0.81,0.13-1.77,1.79-1.93,2.85c-0.69,4.91-1.79,6.05-6.7,6.08c-7.49,0.04-14.98,0-23,0
					c0.47,2.47,0.76,4.62,1.32,6.7c7.53,27.31,24.3,47.15,49.1,60.42c16.19,8.65,33.72,13.68,51.18,18.85
					c10.4,3.09,20.78,6.28,31.16,9.44c1.12,0.34,2.26,0.67,3.41,1.01l30.85-40.13"/>
				<path class="st2" d="M377.56,356.66c-0.52,18.65-4.44,34.41-6.75,42.26C375.16,385.14,377.49,371.06,377.56,356.66z"/>
				<path class="st2" d="M232.93,400.92c-27.19,19.55-57.28,25.6-90.1,18.03c1.84,1.3,3.61,2.42,5.54,3.16
					c3.97,1.5,7.91,3.23,12.02,4.15c42.73,9.37,79.75-2.58,112.1-30.85c11.79-10.31,20.78-22.94,27.49-37.1
					c1.17-2.47,2.22-2.58,4.55-1.73c4.62,1.68,9.39,2.89,15.31,4.66c-7.44-17.46-14.46-33.88-21.59-50.6
					c-15.65,11.08-30.87,21.84-46.7,33.05c6.61,1.61,12.47,3.05,18.72,4.57C263.65,370.47,251.13,387.85,232.93,400.92z"/>
				<path class="st3" d="M289.9,182.62c-1.86-1.28-4.82-2.2-6.93-1.7c-10.58,2.44-21.01,5.49-31.52,8.12
					c-6.99,1.75-14.06,3.9-20.98-0.63c-2.6-1.68-5.65-2.67-8.34-4.24c-3.61-2.13-7.11-4.46-10.54-6.88
					c-0.56-0.4-0.83-1.77-0.61-2.49c0.16-0.49,1.57-1.08,2.15-0.87c3.48,1.28,6.99,2.51,10.25,4.24c4.33,2.29,8.23,5.52,12.69,7.47
					c5.43,2.38,8.7-0.49,7.4-6.3c-0.4-1.82-2.35-3.59-4.01-4.75c-8.36-5.85-16.79-11.66-25.38-17.17
					c-6.14-3.97-12.29-8.18-18.97-10.99c-8.61-3.61-17.98-1.73-27.06-1.5c-0.78,0.02-2.09,1.97-2.15,3.07
					c-0.25,4.35-0.11,8.74-0.11,13.12c-0.18,0-0.34,0-0.52,0c0,4.26,0.16,8.5-0.07,12.76c-0.13,2.62,0.94,3.25,3.25,3.18
					c6.14-0.2,11.82,1.3,17.06,4.69c5.13,3.32,10.47,6.28,15.69,9.46c8,4.87,15.92,9.86,23.99,14.62c3.21,1.88,6.55,3.14,10.65,1.82
					c9.24-3,18.72-5.29,27.98-8.27c8.16-2.65,16.21-5.67,24.21-8.81C292.07,188.94,293.04,184.8,289.9,182.62z"/>
				<path class="st3" d="M347.29,162.6c-0.07,0-0.13,0-0.2,0c0-4.75,0.16-9.51-0.11-14.24c-0.07-1.14-1.61-3.21-2.42-3.16
					c-9.12,0.38-16.16-4.35-23.41-8.83c-5.6-3.48-11.48-6.52-17.15-9.91c-4.69-2.78-9.08-6.12-13.92-8.61
					c-8.21-4.19-16.72-2.15-24.86,0.22c-10.9,3.18-21.57,7.08-32.31,10.74c-2.24,0.76-4.73,1.32-6.52,2.74
					c-1.3,1.01-2.38,3.34-2.2,4.93c0.13,1.26,2.2,3,3.63,3.27c2.38,0.43,4.98,0.13,7.38-0.4c10.34-2.31,20.6-4.89,30.94-7.22
					c3.14-0.72,6.95-2.29,9.44-1.17c9.3,4.13,18.18,9.17,27.17,13.99c0.56,0.31,1.05,2.04,0.72,2.49c-0.52,0.72-1.95,1.43-2.67,1.19
					c-2.69-0.94-5.29-2.17-7.8-3.5c-5.83-3.09-11.5-6.5-17.46-9.28c-1.37-0.63-4.48,0.27-5.43,1.5c-1.46,1.93-1.66,4.73,0.81,6.7
					c0.96,0.78,1.88,1.66,2.89,2.38c9.66,6.84,19.55,13.36,28.99,20.51c12.49,9.46,26.05,14.46,41.88,12.58
					c2.11-0.25,2.71-0.94,2.65-3.03C347.18,171.86,347.29,167.22,347.29,162.6z"/>
				<path class="st4" d="M133.01,373.75c0.94,12.85,4.08,25.11,9.95,36.57c1.14,2.24,4.06,4.48,6.5,4.95
					c5.49,1.08,11.21,1.05,17.62,1.55c-3.79-2.06-6.66-3.65-9.55-5.22c0.18-0.61,0.36-1.19,0.54-1.79c3.14-0.56,6.39-0.78,9.44-1.73
					c7.71-2.4,15.36-4.98,22.94-7.73c2.06-0.74,3.74-2.35,1.61-4.87c-5.58-6.59-9.12-14.3-11.61-22.46
					c-0.87-2.89-2.4-3.48-5.16-3.41c-12.73,0.25-25.47,0.43-38.18,0.27C133.84,369.78,132.78,370.7,133.01,373.75z"/>
				<path class="st2" d="M185.65,408.27c-4.62,1.79-9.46,3-14.21,4.46c0.07,0.38,0.13,0.76,0.18,1.12
					c6.12-0.85,12.35-1.21,18.36-2.62c19.03-4.48,34.5-14.21,44.3-31.72c1.39-2.49,2.29-6.17,4.39-7.08c2.02-0.87,5.29,1.12,8,1.82
					c0.18,0.04,0.43-0.18,0.74-0.34c-4.1-8.43-8.23-16.86-12.49-25.63c-7.85,6.23-15.22,12.08-23.32,18.52
					c3.12,0.67,5.25,1.23,7.4,1.55c2.24,0.34,2.6,1.35,1.86,3.36C214.55,389.17,202.98,401.55,185.65,408.27z"/>
				<path class="st2" d="M353.52,136.28c0,16.23,0.02,32.49,0,48.72c0,2.15,1.05,2.82,3.03,2.8c5.99-0.04,11.97-0.02,18.2-0.02
					c0-17.94,0-35.18,0-52.8c-7.47,0-14.17,0-20.83,0C353.75,135.58,353.52,135.92,353.52,136.28z M362.54,175.2
					c2.6,0.22,4.24,1.86,4.1,4.39c-0.16,2.76-2.29,4.17-4.89,4.1c-2.29-0.04-4.04-1.26-3.99-3.95
					C357.81,176.97,359.82,174.98,362.54,175.2z"/>
				<path class="st2" d="M156.68,135.34c-5.96-0.22-11.95-0.11-18.85-0.11c0,16.55-0.02,32.64,0.07,48.74
					c0,0.72,0.99,2.02,1.55,2.02c6.68,0.13,13.38,0.09,20.27,0.09c0-16.59,0.04-32.44-0.13-48.31
					C159.55,136.91,157.71,135.36,156.68,135.34z M150.61,146.97c-2.82,0-4.42-1.82-4.35-4.51c0.09-2.65,1.75-4.35,4.53-4.42
					c2.85-0.07,3.9,1.73,4.04,4.24C154.73,145.11,153.5,146.97,150.61,146.97z"/>
				<path class="st2" d="M247.14,174.66c7.35-0.02,14.68-0.02,22.46-0.02c0-6.57,0-12.98,0-19.89c-7.69,0-15.29-0.09-22.87,0.11
					c-0.92,0.02-2.49,1.57-2.56,2.49c-0.25,4.73-0.02,9.48-0.16,14.21C243.98,173.88,245.01,174.66,247.14,174.66z"/>
				<path class="st2" d="M256.76,152.22c5.04,0.22,5.04,0.22,5.2-2.35c0.27-4.42-0.67-5.54-4.8-5.72c-4.3-0.18-5.38,0.83-5.6,4.89
					C251.27,153.95,255.06,151.48,256.76,152.22z"/>
				<path class="st5" d="M377.56,356.66c0.04-7.78-0.58-15.63-1.91-23.56c-2.87-17.29-8.9-32.6-18.29-45.71
					c-1.57-2.02-3.25-4.01-5.04-5.96c0,0-13.86-19.44-49.68-33.72l-30.85,40.13c6.91,1.97,13.9,3.68,20.45,6.5
					c12.89,5.56,22.82,13.61,29.48,24.19c4.95,7.31,8.45,16.32,9.24,27.35c1.21,10.38,0.09,20.33-3.07,29.84
					c-3.9,13.81-12.8,31.34-33,41.03c-12.67,6.99-27.49,9.53-43.79,8.65c-7.85-0.43-14.95-0.11-22.49,2.65
					c-17.46,6.41-35.62,8-54.26,6.46c-4.21-0.36-8.27-1.03-12.2-2c-2.6-0.4-5.25-0.85-7.96-1.39c0,0,44.63,58.22,61.96,62.24
					c0,0,42.38,11.59,75.31-0.4c0,0,53.85-31.68,75.35-82.84c1.48-3.7,2.8-7.42,3.99-11.16
					C373.12,391.08,377.02,375.32,377.56,356.66z"/>
			</g>
		</g>
	</g>
</g>
</svg>
