<?xml version="1.0" encoding="UTF-8"?>
<svg version="1.1" xmlns="http://www.w3.org/2000/svg" width="1182" height="1182">
<path d="M0 0 C1.39233319 1.25962973 2.79066517 2.51336801 4.22094727 3.72973633 C10.2676281 8.89226609 15.87506831 14.47705997 21.48217773 20.10571289 C23.14130445 21.77020027 24.80571176 23.42927197 26.47070312 25.08789062 C32.05022711 30.66324632 37.51103061 36.28784359 42.58203125 42.3359375 C43.11530029 42.96250244 43.64856934 43.58906738 44.19799805 44.23461914 C64.10393399 67.73068513 81.41206138 93.00191283 96.27685547 119.97216797 C97.45929185 122.11364741 98.66103199 124.2429277 99.8671875 126.37109375 C111.79414778 147.77088515 120.85936273 171.13697937 128.58203125 194.3359375 C129.04899414 195.73489258 129.04899414 195.73489258 129.52539062 197.16210938 C155.85794658 277.17040839 157.98909659 365.7593096 106.58203125 529.6484375 C105.61637885 531.53201607 104.63859767 533.40858501 103.65380859 535.28222656 C102.44960448 537.58969012 101.27558416 539.9114157 100.1015625 542.234375 C83.82071483 574.19926508 63.13685757 604.26159683 38.91796875 630.75390625 C37.65279034 632.15237269 36.39370225 633.55697405 35.1706543 634.99243164 C30.14016025 640.87717487 24.72082131 646.34944718 19.23950195 651.80883789 C17.64744159 653.39553696 16.06080135 654.98751492 14.47460938 656.58007812 C9.01637034 662.04215207 3.47972904 667.34557783 -2.41796875 672.3359375 C-3.3821875 673.1815625 -4.34640625 674.0271875 -5.33984375 674.8984375 C-80.2999884 739.50497101 -178.58261353 777.79588549 -328.59179688 779.32006836 C-408.4943125 772.7569561 -486.70078865 744.95004553 -551.41796875 697.3359375 C-552.97644531 696.20285156 -552.97644531 696.20285156 -554.56640625 695.046875 C-565.7967459 686.76713397 -576.74961532 677.98923339 -587.01171875 668.53125 C-588.34870017 667.31147149 -589.69402925 666.10010098 -591.07006836 664.92456055 C-596.80049321 660.02042054 -602.14529399 654.76136182 -607.46362305 649.4206543 C-608.97789455 647.90102082 -610.49744305 646.38681233 -612.01757812 644.87304688 C-617.36117093 639.53343503 -622.5341484 634.10376563 -627.41796875 628.3359375 C-628.30653347 627.31444414 -629.19581241 626.29357145 -630.0859375 625.2734375 C-637.2600481 616.90920313 -643.92770352 608.23908881 -650.41796875 599.3359375 C-650.90910156 598.66578613 -651.40023437 597.99563477 -651.90625 597.30517578 C-664.41405331 580.17295047 -675.51322422 562.08981886 -685.41796875 543.3359375 C-685.88557617 542.45131836 -686.35318359 541.56669922 -686.83496094 540.65527344 C-704.90616714 506.16869338 -718.00908736 469.33078937 -726.41796875 431.3359375 C-726.65209473 430.29018555 -726.8862207 429.24443359 -727.12744141 428.16699219 C-730.09980052 414.62930526 -732.08917398 401.03213656 -733.66796875 387.2734375 C-733.75114349 386.55243866 -733.83431824 385.83143982 -733.92001343 385.08859253 C-735.79598314 368.58915951 -736.65524521 352.12743737 -736.66796875 335.5234375 C-736.66864349 334.71356384 -736.66931824 333.90369019 -736.67001343 333.0692749 C-736.57679698 261.38321079 -718.81224017 191.92298871 -686.32623291 128.12182617 C-685.49721634 126.49175931 -684.6747714 124.85835451 -683.85302734 123.22460938 C-672.01337371 99.84586279 -656.85452536 77.71846527 -640.41796875 57.3359375 C-639.60199219 56.30984375 -638.78601563 55.28375 -637.9453125 54.2265625 C-633.71258087 48.9701342 -629.30724273 43.8987257 -624.75390625 38.91796875 C-623.48872784 37.51950231 -622.22963975 36.11490095 -621.0065918 34.67944336 C-615.97609775 28.79470013 -610.55675881 23.32242782 -605.07543945 17.86303711 C-603.48337909 16.27633804 -601.89673885 14.68436008 -600.31054688 13.09179688 C-594.85230784 7.62972293 -589.31566654 2.32629717 -583.41796875 -2.6640625 C-582.45375 -3.5096875 -581.48953125 -4.3553125 -580.49609375 -5.2265625 C-510.12424154 -65.87854562 -419.92405448 -102.66269549 -327.41796875 -109.6640625 C-326.74427246 -109.72045898 -326.07057617 -109.77685547 -325.37646484 -109.83496094 C-227.77383931 -117.85189591 -127.86494712 -90.83880454 0 0 Z M-403.8125 67.87890625 C-414.93362486 80.75292294 -422.03245319 96.13004054 -428.63696289 111.65625 C-429.41796875 113.3359375 -429.41796875 113.3359375 -430.41796875 114.3359375 C-432.86405873 114.49574187 -435.28527933 114.59523197 -437.734375 114.65234375 C-438.8309568 114.6835154 -438.8309568 114.6835154 -439.94969177 114.71531677 C-442.29318531 114.78088774 -444.63679414 114.83973182 -446.98046875 114.8984375 C-448.5657673 114.94161558 -450.15105404 114.98522963 -451.73632812 115.02929688 C-455.63008912 115.1365767 -459.52396647 115.2378224 -463.41796875 115.3359375 C-463.87980143 113.34822591 -464.34163411 111.36051432 -464.8034668 109.37280273 C-465.72014589 106.33432293 -467.12454105 104.49831219 -469.41796875 102.3359375 C-474.16139766 100.91399167 -479.18220528 101.11146189 -484.09375 101.01953125 C-485.01890915 100.99875015 -485.9440683 100.97796906 -486.89726257 100.95655823 C-489.84159182 100.8913719 -492.7860074 100.83232192 -495.73046875 100.7734375 C-497.73112858 100.73022286 -499.73177981 100.68660764 -501.73242188 100.64257812 C-506.62751654 100.5357223 -511.52269772 100.43436831 -516.41796875 100.3359375 C-511.97780627 79.43931497 -506.21873221 59.80722368 -497.41796875 40.3359375 C-502.51521334 41.97469661 -506.461867 45.01995374 -510.73046875 48.1484375 C-511.519375 48.72303711 -512.30828125 49.29763672 -513.12109375 49.88964844 C-523.95012153 57.84681805 -534.38503442 66.28810859 -544.28125 75.3828125 C-546.18709222 77.12489863 -548.13300177 78.79548563 -550.10546875 80.4609375 C-559.55742393 88.72179264 -568.50506864 97.75553102 -576.26171875 107.625 C-578.20531751 110.0685825 -580.22919797 112.41641358 -582.29174805 114.75952148 C-621.91815778 160.15028388 -643.76745366 220.44107058 -652.41796875 279.3359375 C-652.5689502 280.30063965 -652.71993164 281.2653418 -652.87548828 282.25927734 C-658.29011169 318.08223889 -658.18530431 357.56720367 -652.41796875 393.3359375 C-652.2463623 394.4388916 -652.07475586 395.5418457 -651.89794922 396.67822266 C-642.48629113 455.71345781 -619.20131515 511.75646813 -581.41796875 558.3359375 C-580.69738281 559.24730469 -579.97679687 560.15867187 -579.234375 561.09765625 C-574.22070155 567.36251381 -568.8845275 573.26975278 -563.40625 579.125 C-561.48259655 581.18176755 -559.58338458 583.25588934 -557.7109375 585.359375 C-553.44791182 590.13972638 -549.17332912 594.61205886 -544.26953125 598.734375 C-542.44360355 600.31376394 -540.77991301 601.9730072 -539.10546875 603.7109375 C-532.4276577 610.49522845 -524.6897046 616.21148151 -517.09765625 621.92578125 C-515.41796875 623.3359375 -515.41796875 623.3359375 -514.41796875 625.3359375 C-515.51109375 625.0265625 -516.60421875 624.7171875 -517.73046875 624.3984375 C-522.90073198 623.0896276 -528.11058267 622.70667403 -533.41796875 622.3359375 C-533.41796875 625.94626355 -532.93445689 626.27649114 -530.48046875 628.7734375 C-499.59972371 658.2997639 -457.30330775 668.28976003 -415.71484375 667.51953125 C-392.20347235 666.81593817 -369.97293015 662.92856424 -347.60546875 655.6484375 C-328.8944396 649.64885065 -311.96895657 649.28201599 -292.51785278 649.41531372 C-253.70121767 649.64716897 -217.69807106 638.30347336 -189.41796875 610.7109375 C-165.48151657 586.53454953 -153.24201095 550.90114663 -153.10546875 517.2734375 C-153.42254431 482.30524577 -164.04976787 454.77338977 -188.94140625 429.8046875 C-211.89185897 407.99839224 -241.6583408 400.24805343 -271.24584961 391.65551758 C-380.81409288 359.79509958 -380.81409288 359.79509958 -409.41796875 346.3359375 C-410.12614746 346.00529297 -410.83432617 345.67464844 -411.56396484 345.33398438 C-430.59190351 336.3660264 -447.73245731 325.65797223 -463.21875 311.34375 C-465.09098407 309.63446348 -467.0032741 308.04450301 -468.98046875 306.4609375 C-473.79543064 302.35472 -477.52314871 297.29065939 -481.41796875 292.3359375 C-482.62839844 290.86640625 -482.62839844 290.86640625 -483.86328125 289.3671875 C-499.60399911 269.82698602 -509.62904404 246.10859724 -515.5625 221.8671875 C-515.7428479 221.13790039 -515.9231958 220.40861328 -516.10900879 219.65722656 C-516.54724417 217.8839358 -516.98288354 216.1100038 -517.41796875 214.3359375 C-516.82772415 214.34259933 -516.23747955 214.34926117 -515.62934875 214.35612488 C-509.48122611 214.42254052 -503.33320554 214.467764 -497.18481445 214.50073242 C-494.89082703 214.51581058 -492.59686838 214.5362762 -490.30297852 214.56225586 C-487.0039967 214.59868108 -483.70539635 214.61567381 -480.40625 214.62890625 C-478.87004753 214.65213203 -478.87004753 214.65213203 -477.30281067 214.67582703 C-470.34112204 214.73602665 -470.34112204 214.73602665 -464.41796875 211.3359375 C-462.41503528 208.33153729 -461.92525249 206.62599805 -461.29296875 203.1484375 C-461.04160156 201.79685547 -461.04160156 201.79685547 -460.78515625 200.41796875 C-460.66398438 199.73089844 -460.5428125 199.04382813 -460.41796875 198.3359375 C-448.55817411 197.75975315 -438.46192188 198.17598784 -429.15820312 206.43115234 C-425.83450265 210.06913089 -423.85250817 214.45676409 -421.66796875 218.8359375 C-416.76751042 228.22945264 -411.40934384 236.39221164 -404.41796875 244.3359375 C-403.84046875 245.01269531 -403.26296875 245.68945312 -402.66796875 246.38671875 C-388.69164092 261.58597526 -368.64367607 269.43321977 -349.41796875 275.4609375 C-347.69674679 276.01031023 -345.97563996 276.56004379 -344.25463867 277.11010742 C-319.03908659 285.11701901 -293.6117751 292.59613826 -268.04248047 299.390625 C-238.54134473 307.25411511 -208.62381688 316.32657948 -181.41796875 330.3359375 C-179.859717 331.11136474 -178.30113134 331.88612136 -176.7421875 332.66015625 C-156.2478483 343.00818382 -137.43274849 356.88832587 -121.41796875 373.3359375 C-120.91136719 373.820625 -120.40476562 374.3053125 -119.8828125 374.8046875 C-83.75441572 409.69862881 -68.26726369 463.40005936 -67.21484375 512.4375 C-66.86988243 545.44025491 -71.55481164 576.49490278 -81.98046875 607.8359375 C-82.21185547 608.53285706 -82.44324219 609.22977661 -82.68164062 609.94781494 C-85.23553769 617.5803407 -87.98156005 624.97766801 -91.61303711 632.18164062 C-92.72364644 634.46602223 -92.72364644 634.46602223 -91.41796875 637.3359375 C-76.46106415 628.49220917 -62.47499973 618.36424035 -49.75390625 606.49609375 C-47.76932566 604.66085451 -45.75031277 602.89301798 -43.703125 601.12890625 C-33.26696174 592.02153355 -23.1173324 582.07247449 -14.59765625 571.1328125 C-12.93183238 568.99530374 -11.23774555 566.91880712 -9.48828125 564.8515625 C-0.57004466 554.2493586 7.13042323 543.00584087 14.58203125 531.3359375 C15.20754883 530.36503174 15.20754883 530.36503174 15.84570312 529.37451172 C51.14328748 474.21056597 68.47687885 409.41679265 70.58203125 344.3359375 C70.62457031 343.03398438 70.66710937 341.73203125 70.7109375 340.390625 C72.04692604 252.21538147 41.65760118 164.26534445 -18.08203125 98.91796875 C-19.34337358 97.52374253 -20.59889543 96.12362623 -21.81835938 94.69262695 C-26.94067652 88.70128972 -32.45241351 83.11536081 -38.02294922 77.5456543 C-39.65624323 75.91017868 -41.28135345 74.26686042 -42.90625 72.62304688 C-49.43323757 66.06150176 -56.16088812 60.09126822 -63.41796875 54.3359375 C-64.48137622 53.43818422 -65.5399651 52.5346315 -66.58984375 51.62109375 C-82.88499818 36.86672605 -82.88499818 36.86672605 -102.41796875 29.3359375 C-101.05078617 33.91392767 -99.15884349 37.75580026 -96.79296875 41.8984375 C-88.19860508 57.56111817 -83.12134017 74.7935073 -78.16064453 91.87670898 C-77.30306982 94.71640329 -76.36657963 97.5254932 -75.41796875 100.3359375 C-76.53244385 100.32022705 -77.64691895 100.3045166 -78.79516602 100.28833008 C-82.95296932 100.23379119 -87.11074135 100.1995007 -91.26879883 100.17114258 C-93.06410042 100.15611034 -94.85936563 100.13567893 -96.65454102 100.10961914 C-99.24374401 100.07298964 -101.83245903 100.0561554 -104.421875 100.04296875 C-105.21694962 100.02748489 -106.01202423 100.01200104 -106.83119202 99.99604797 C-112.09903833 99.99447791 -115.74929709 100.84308924 -120.41796875 103.3359375 C-123.05311799 107.40844086 -123.02487427 112.58776999 -123.41796875 117.3359375 C-137.75059005 117.75748519 -149.56071365 117.46445343 -161.41796875 108.3359375 C-168.05048696 101.95148592 -172.29743692 93.59880854 -176.92089844 85.73632812 C-180.90373878 79.02706395 -185.11250883 73.08667709 -190.41796875 67.3359375 C-191.16046875 66.50191406 -191.90296875 65.66789062 -192.66796875 64.80859375 C-214.65937968 41.33420939 -251.80075054 26.57754022 -283.65917969 25.1953125 C-329.06338575 23.99572978 -371.77539403 33.85581329 -403.8125 67.87890625 Z " fill="#2D636E" transform="translate(883.41796875,256.6640625)"/>
<path d="M0 0 C9.7450302 3.48590111 14.62156856 11.14707541 19 20 C28.8061702 38.81164595 41.24213429 53.19880025 60.1875 63.4375 C61.40445557 64.10942383 61.40445557 64.10942383 62.64599609 64.79492188 C71.42036682 69.43157612 80.51369658 72.44644418 89.9375 75.4375 C90.78688141 75.71040863 91.63626282 75.98331726 92.51138306 76.26449585 C118.64966954 84.66230618 145.02914441 92.44139267 171.56298828 99.4921875 C201.06412402 107.35567761 230.98165187 116.42814198 258.1875 130.4375 C259.74575175 131.21292724 261.30433741 131.98768386 262.86328125 132.76171875 C280.41138428 141.62212904 296.56476833 153.06160863 310.96875 166.4296875 C312.52199287 167.83526291 314.1297066 169.18187168 315.7734375 170.48046875 C318.59084787 172.76448589 320.77925446 175.24595493 323.1171875 178.00390625 C324.61536684 179.76497367 326.14578739 181.49878089 327.6953125 183.21484375 C365.49341906 225.53176898 376.04736243 286.13958118 372.98535156 341.06347656 C371.23633869 364.34184782 366.03717668 386.65533145 358.6875 408.75 C358.34682495 409.77616425 358.34682495 409.77616425 357.99926758 410.82305908 C354.84729931 420.24230647 351.23147407 429.36414194 347.1875 438.4375 C346.5275 438.4375 345.8675 438.4375 345.1875 438.4375 C344.94644531 439.26765625 344.70539063 440.0978125 344.45703125 440.953125 C342.98365164 444.99698534 341.06640535 448.49625876 338.875 452.1875 C338.43986084 452.92194336 338.00472168 453.65638672 337.55639648 454.41308594 C329.35013186 468.00241842 319.71493393 480.57669447 309.1875 492.4375 C308.36378906 493.37207031 307.54007813 494.30664062 306.69140625 495.26953125 C295.0718652 508.19781817 282.91789956 520.75191708 269.1875 531.4375 C268.01115951 532.41024963 266.83822809 533.38713043 265.66796875 534.3671875 C247.1586359 549.8100523 225.44338775 567.69386515 201.75 574 C200.97285645 574.21052002 200.19571289 574.42104004 199.39501953 574.63793945 C192.06177094 576.56801489 184.68680131 577.99601621 177.19189453 579.12890625 C175.33099071 579.41540837 173.47566041 579.7374938 171.62109375 580.0625 C152.19574012 583.08003066 131.72881755 582.04206566 112.1875 580.4375 C112.1875 579.7775 112.1875 579.1175 112.1875 578.4375 C111.11113281 578.47488281 110.03476562 578.51226563 108.92578125 578.55078125 C103.31171533 578.54707723 97.89409432 577.57656799 92.375 576.625 C91.35857422 576.45935547 90.34214844 576.29371094 89.29492188 576.12304688 C59.07969409 571.01977386 39.19691888 551.84862939 18.27124023 530.72705078 C16.23287507 528.67021993 14.18641053 526.62171383 12.13867188 524.57421875 C10.81202464 523.24266094 9.48583602 521.91064601 8.16015625 520.578125 C7.56211685 519.97897278 6.96407745 519.37982056 6.34791565 518.76251221 C2.67243236 515.04624279 -0.82164399 511.21193591 -4.23417664 507.25270081 C-6.64774195 504.47690353 -9.17122409 501.80730522 -11.6875 499.125 C-16.22026824 494.25778333 -20.49555273 489.24740356 -24.66015625 484.05859375 C-26.84398974 481.39915224 -29.11649759 478.85268645 -31.4375 476.3125 C-35.48660672 471.87200335 -39.20429397 467.24070674 -42.8125 462.4375 C-42.4825 461.7775 -42.1525 461.1175 -41.8125 460.4375 C-35.28188869 461.35959628 -28.85274304 462.39627698 -22.4375 463.9375 C15.12898434 472.15125962 55.82500577 467.52418117 92 455.75 C110.71102915 449.75041315 127.63651218 449.38357849 147.08761597 449.51687622 C185.75924422 449.74786533 221.30125575 438.50269463 249.6875 411.3125 C274.24191903 386.03284497 285.78389138 349.68352535 285.46899414 314.95556641 C284.8027081 281.54364005 273.57901068 254.90164739 249.88671875 231.12890625 C227.2458993 209.74796873 197.42342461 202.19752676 168.35961914 193.75708008 C58.79137587 161.89666208 58.79137587 161.89666208 30.1875 148.4375 C29.47932129 148.10685547 28.77114258 147.77621094 28.04150391 147.43554688 C9.04987937 138.48470392 -8.09942938 127.78814833 -23.546875 113.51171875 C-25.60765371 111.62504031 -27.7244155 109.84477574 -29.875 108.0625 C-34.83733529 103.72667197 -38.76051254 98.60867201 -42.8125 93.4375 C-43.61816406 92.45910156 -44.42382812 91.48070312 -45.25390625 90.47265625 C-60.61049417 71.41510661 -72.16950611 47.11480408 -76.453125 22.96875 C-76.58605957 22.23946289 -76.71899414 21.51017578 -76.85595703 20.75878906 C-77.17859887 18.98571227 -77.49609902 17.21170109 -77.8125 15.4375 C-77.2222554 15.43163376 -76.6320108 15.42576752 -76.02388 15.41972351 C-69.87538736 15.35574332 -63.7274159 15.2713116 -57.5793457 15.17504883 C-55.28547033 15.14181366 -52.99151346 15.11377736 -50.69750977 15.09106445 C-47.39824727 15.05749326 -44.0997307 15.00517465 -40.80078125 14.94921875 C-39.26457878 14.93963387 -39.26457878 14.93963387 -37.69734192 14.92985535 C-30.7315654 14.85486869 -30.7315654 14.85486869 -24.8125 11.4375 C-23.43018658 8.55083637 -23.43018658 8.55083637 -22.625 5.3125 C-22.06917208 3.33990219 -21.47532366 1.37676574 -20.8125 -0.5625 C-14.86643195 -3.53553403 -6.08050865 -1.99277174 0 0 Z " fill="#DB9D37" transform="translate(443.8125,455.5625)"/>
<path d="M0 0 C9.7450302 3.48590111 14.62156856 11.14707541 19 20 C28.8061702 38.81164595 41.24213429 53.19880025 60.1875 63.4375 C61.40445557 64.10942383 61.40445557 64.10942383 62.64599609 64.79492188 C71.42036682 69.43157612 80.51369658 72.44644418 89.9375 75.4375 C90.78688141 75.71040863 91.63626282 75.98331726 92.51138306 76.26449585 C118.65229123 84.66314849 145.03461298 92.43535733 171.56884766 99.49487305 C192.75485106 105.13477426 213.44281085 112.37312963 234.1875 119.4375 C233.78591675 119.90161789 233.3843335 120.36573578 232.97058105 120.84391785 C232.43823853 121.46156509 231.905896 122.07921234 231.35742188 122.71557617 C230.83208862 123.32406906 230.30675537 123.93256195 229.76550293 124.55949402 C227.2734526 127.52532211 224.98514328 130.63278744 222.6875 133.75 C216.51408478 142.05403695 210.16481323 150.21415201 203.79785156 158.37011719 C199.90147932 163.37231248 196.04759287 168.4072966 192.1875 173.4375 C190.45895075 175.68797491 188.72969982 177.9379093 187 180.1875 C186.58669434 180.72503906 186.17338867 181.26257813 185.74755859 181.81640625 C182.24419744 186.36979442 178.72048075 190.90707969 175.1875 195.4375 C166.85956916 193.44044171 158.66433498 191.14847644 150.48046875 188.62890625 C148.6995005 188.08472046 148.6995005 188.08472046 146.8825531 187.52954102 C143.70217668 186.55701328 140.52265108 185.58180776 137.34363556 184.60484695 C134.02359722 183.5847927 130.70291852 182.56682665 127.38232422 181.54858398 C123.38757214 180.32353081 119.39291947 179.09815878 115.39874268 177.87123108 C107.82400183 175.54540715 100.24259337 173.243436 92.65234375 170.96875 C50.6545678 158.35018471 9.24324176 143.81613311 -23.546875 113.51171875 C-25.60765371 111.62504031 -27.7244155 109.84477574 -29.875 108.0625 C-34.83733529 103.72667197 -38.76051254 98.60867201 -42.8125 93.4375 C-43.61816406 92.45910156 -44.42382812 91.48070312 -45.25390625 90.47265625 C-60.61049417 71.41510661 -72.16950611 47.11480408 -76.453125 22.96875 C-76.58605957 22.23946289 -76.71899414 21.51017578 -76.85595703 20.75878906 C-77.17859887 18.98571227 -77.49609902 17.21170109 -77.8125 15.4375 C-77.2222554 15.43163376 -76.6320108 15.42576752 -76.02388 15.41972351 C-69.87538736 15.35574332 -63.7274159 15.2713116 -57.5793457 15.17504883 C-55.28547033 15.14181366 -52.99151346 15.11377736 -50.69750977 15.09106445 C-47.39824727 15.05749326 -44.0997307 15.00517465 -40.80078125 14.94921875 C-39.26457878 14.93963387 -39.26457878 14.93963387 -37.69734192 14.92985535 C-30.7315654 14.85486869 -30.7315654 14.85486869 -24.8125 11.4375 C-23.43018658 8.55083637 -23.43018658 8.55083637 -22.625 5.3125 C-22.06917208 3.33990219 -21.47532366 1.37676574 -20.8125 -0.5625 C-14.86643195 -3.53553403 -6.08050865 -1.99277174 0 0 Z " fill="#2D636E" transform="translate(443.8125,455.5625)"/>
<path d="M0 0 C7.75509116 17.49935722 15.33263366 35.0689422 22.8125 52.6875 C24.31410153 56.22032362 25.81613783 59.75296174 27.318573 63.28543091 C28.27171874 65.52797464 29.2236805 67.77102203 30.17434692 70.01461792 C32.1118793 74.58411246 34.05477698 79.14924432 36.06787109 83.68603516 C36.36078537 84.35029007 36.65369965 85.01454498 36.95549011 85.69892883 C37.69012533 87.35786104 38.43381261 89.01277717 39.1784668 90.66723633 C39.44957275 91.43704834 39.72067871 92.20686035 40 93 C39.67 93.66 39.34 94.32 39 95 C38.21874756 94.76289307 37.43749512 94.52578613 36.63256836 94.28149414 C33.06911277 93.20323639 29.50335207 92.1328045 25.9375 91.0625 C24.09381836 90.50272461 24.09381836 90.50272461 22.21289062 89.93164062 C20.41948242 89.39506836 20.41948242 89.39506836 18.58984375 88.84765625 C17.49534912 88.51773682 16.40085449 88.18781738 15.27319336 87.84790039 C11.85922589 86.96353334 8.49722283 86.4354594 5 86 C4.74009277 86.5261792 4.48018555 87.0523584 4.21240234 87.59448242 C-4.91178672 105.90811809 -15.31135011 123.6828728 -29 139 C-29.45052734 139.50934082 -29.90105469 140.01868164 -30.36523438 140.54345703 C-41.15212268 152.69490831 -53.01876947 163.25163025 -66 173 C-66.96268799 173.72340576 -66.96268799 173.72340576 -67.94482422 174.46142578 C-116.75339867 210.78324978 -176.1284187 227.76223758 -236.75 219.75 C-240.18164973 219.23668265 -243.5907429 218.64440709 -247 218 C-247.74475586 217.86609863 -248.48951172 217.73219727 -249.25683594 217.59423828 C-258.2163422 215.93320622 -266.70587214 213.21014318 -275.25 210.0625 C-276.14412598 209.73870361 -277.03825195 209.41490723 -277.95947266 209.08129883 C-283.08011426 207.11080551 -286.45278099 205.21415482 -290 201 C-283.71329876 201.6564427 -277.49250067 202.51526921 -271.25 203.5 C-219.83692744 211.3461148 -168.49332244 199.21824648 -126 169 C-125.43506836 168.60184082 -124.87013672 168.20368164 -124.28808594 167.79345703 C-117.91039923 163.26374208 -111.98703703 158.35903738 -106.2421875 153.0546875 C-104.30893687 151.28310243 -102.33710666 149.60217659 -100.3125 147.9375 C-77.52348679 128.43434451 -63.00762813 97.93829375 -54 70 C-54.82564453 69.87044922 -54.82564453 69.87044922 -55.66796875 69.73828125 C-62.53259407 68.57821279 -69.29140415 67.04419097 -76.0625 65.4375 C-77.00311279 65.21553955 -77.94372559 64.9935791 -78.9128418 64.76489258 C-79.79883057 64.55243896 -80.68481934 64.33998535 -81.59765625 64.12109375 C-82.39695557 63.9295874 -83.19625488 63.73808105 -84.01977539 63.54077148 C-86 63 -86 63 -88 62 C-88 61.34 -88 60.68 -88 60 C-86.54150391 58.78588867 -86.54150391 58.78588867 -84.4765625 57.41796875 C-83.7119873 56.90484131 -82.94741211 56.39171387 -82.15966797 55.86303711 C-81.32322754 55.31010986 -80.48678711 54.75718262 -79.625 54.1875 C-77.86846099 53.00718624 -76.11328415 51.82484312 -74.359375 50.640625 C-73.01456055 49.73280273 -73.01456055 49.73280273 -71.64257812 48.80664062 C-67.66730141 46.08887938 -63.76751833 43.27201219 -59.875 40.4375 C-52.00661777 34.71784746 -44.07897299 29.08835374 -36.12207031 23.49267578 C-33.23694244 21.46326117 -30.35371093 19.43116862 -27.47143555 17.39770508 C-26.04648786 16.3926843 -24.62088236 15.38859548 -23.19458008 14.38549805 C-19.75032575 11.959587 -16.32341116 9.5143203 -12.92578125 7.0234375 C-12.28406982 6.55566895 -11.6423584 6.08790039 -10.98120117 5.60595703 C-9.77512947 4.7249203 -8.57320126 3.8381731 -7.3762207 2.94482422 C-3.33455616 0 -3.33455616 0 0 0 Z " fill="#2D636E" transform="translate(670,693)"/>
<path d="M0 0 C34.60119386 -1.14438328 60.0766424 19.47514459 87.61083984 38.09130859 C88.51141113 38.69861816 89.41198242 39.30592773 90.33984375 39.93164062 C98.16662481 45.21556203 105.98083756 50.52529543 113.61083984 56.09130859 C114.51833984 56.75130859 115.42583984 57.41130859 116.36083984 58.09130859 C119.50619519 60.88718001 121.29846304 63.42529897 122.07958984 67.59130859 C122.13442473 71.97809956 121.99691291 74.45615613 119.67333984 78.27880859 C116.04371699 80.42695273 114.33234553 80.64627732 110.25146484 79.92333984 C102.31412428 77.42237307 95.31235397 72.54896702 88.36083984 68.09130859 C83.24397106 64.89482944 78.05201562 62.35335299 72.48583984 60.02880859 C71.75075195 59.7175 71.01566406 59.40619141 70.25830078 59.08544922 C66.02423447 57.29087443 66.02423447 57.29087443 61.61083984 58.09130859 C61.61083984 59.41130859 61.61083984 60.73130859 61.61083984 62.09130859 C62.29919922 62.32849609 62.98755859 62.56568359 63.69677734 62.81005859 C67.18216098 64.34250609 70.13611003 66.41453906 73.23583984 68.59130859 C79.18264706 72.66259009 85.29441764 76.23906304 91.67333984 79.59130859 C92.4701416 80.0121875 93.26694336 80.43306641 94.08789062 80.86669922 C109.43392957 88.8010591 123.43510472 86.511114 139.42333984 82.15380859 C140.97189862 81.74827823 142.52098419 81.34475485 144.07055664 80.94311523 C148.10235737 79.89389736 152.1281897 78.8234988 156.15283203 77.74719238 C162.63703267 76.01697734 169.12984127 74.31971128 175.62484741 72.63058472 C177.8781044 72.04065184 180.12796252 71.43894224 182.37768555 70.83569336 C183.76389994 70.47130872 185.15020697 70.1072763 186.53662109 69.74365234 C187.73714111 69.42388428 188.93766113 69.10411621 190.17456055 68.7746582 C196.5687199 67.503095 201.23019278 67.75864311 206.86865234 70.89599609 C209.48016088 72.68774858 210.62661879 74.06834392 211.61083984 77.09130859 C211.17333984 80.65380859 211.17333984 80.65380859 209.61083984 84.09130859 C205.49646918 87.24694684 201.3323056 89.16619608 196.49365234 90.97412109 C195.47206528 91.35771286 195.47206528 91.35771286 194.42984009 91.74905396 C192.20194081 92.58109504 189.96947204 93.39979233 187.73583984 94.21630859 C186.57719421 94.64333069 186.57719421 94.64333069 185.3951416 95.07897949 C170.61611111 100.51685519 155.69981344 105.39074913 140.61181641 109.89306641 C137.14223364 110.92865739 133.68024583 111.98781922 130.21911621 113.05126953 C127.40351244 113.91302899 124.58404587 114.76154482 121.76330566 115.60632324 C120.43446252 116.00612029 119.10684788 116.41002885 117.78063965 116.81848145 C107.81218528 119.87834735 98.80762907 122.32763166 89.11083984 117.46240234 C88.28583984 117.00994141 87.46083984 116.55748047 86.61083984 116.09130859 C85.64146484 115.56666016 84.67208984 115.04201172 83.67333984 114.50146484 C75.54914967 109.96992952 67.66117011 105.06288667 59.76513672 100.14770508 C53.0266173 95.95534219 46.25106939 91.83146393 39.43286133 87.77001953 C34.66272561 84.92823655 29.91454358 82.05504644 25.18505859 79.14599609 C24.08323242 78.47294434 22.98140625 77.79989258 21.84619141 77.10644531 C19.70928672 75.80069973 17.57681294 74.48766369 15.44970703 73.16601562 C5.75777709 67.26911849 -3.09527235 63.71073741 -14.45166016 63.02880859 C-16.11005703 62.92571562 -17.76775467 62.81042546 -19.42431641 62.68115234 C-20.49758179 62.6172229 -20.49758179 62.6172229 -21.5925293 62.55200195 C-23.38916016 62.09130859 -23.38916016 62.09130859 -25.38916016 59.09130859 C-25.63208008 56.63720703 -25.63208008 56.63720703 -25.61962891 53.70068359 C-25.61858154 52.60916992 -25.61753418 51.51765625 -25.61645508 50.39306641 C-25.60332275 49.22098633 -25.59019043 48.04890625 -25.57666016 46.84130859 C-25.56803955 45.64086914 -25.55941895 44.44042969 -25.55053711 43.20361328 C-25.51417453 39.49902347 -25.45636461 35.79545994 -25.38916016 32.09130859 C-25.36982422 30.96595703 -25.35048828 29.84060547 -25.33056641 28.68115234 C-25.26685621 25.56684829 -25.17813576 22.45459034 -25.07666016 19.34130859 C-25.05434326 18.40899414 -25.03202637 17.47667969 -25.0090332 16.51611328 C-24.79168201 11.17211957 -24.41954473 5.12169317 -20.38916016 1.09130859 C-17.73693703 0.84466098 -15.1103692 0.66168914 -12.45166016 0.52880859 C-11.64696289 0.48852539 -10.84226562 0.44824219 -10.01318359 0.40673828 C-6.67610565 0.25227999 -3.33818701 0.12757837 0 0 Z " fill="#DEA43D" transform="translate(446.38916015625,382.90869140625)"/>
<path d="M0 0 C7.48293109 4.90830107 15.32273937 9.17045547 23.15039062 13.49853516 C29.70548282 17.13576385 36.1420552 20.90419565 42.5 24.875 C54.0999724 32.0808874 64.44975512 36.84655446 78.20703125 37.2734375 C80.625 37.8125 80.625 37.8125 82.24414062 39.50488281 C83.90912885 42.2873207 84.04873365 44.04370757 84.13671875 47.2734375 C84.17249023 48.37115479 84.20826172 49.46887207 84.24511719 50.59985352 C84.26735352 51.78377686 84.28958984 52.9677002 84.3125 54.1875 C84.34375977 55.40945068 84.37501953 56.63140137 84.40722656 57.89038086 C84.4831505 61.17784547 84.54318197 64.46503176 84.59246826 67.75299072 C84.62545266 69.84115684 84.66578232 71.92908169 84.70751953 74.01708984 C84.7743255 77.47063652 84.82178369 80.92395348 84.85415649 84.37799072 C84.87476195 86.35219221 84.90740362 88.32625613 84.94018555 90.30029297 C84.94659058 92.10264404 84.94659058 92.10264404 84.953125 93.94140625 C84.9624707 95.00431885 84.97181641 96.06723145 84.98144531 97.16235352 C84.625 99.8125 84.625 99.8125 83.34741211 101.64306641 C80.26220468 103.73777138 76.55621476 103.49329388 72.9375 103.625 C72.08752441 103.65996582 71.23754883 103.69493164 70.36181641 103.73095703 C43.15768236 104.53839726 19.84917066 94.33724673 -1.55566406 78.17822266 C-4.94177467 75.63636775 -8.38008453 73.16625732 -11.8125 70.6875 C-12.55258301 70.15125 -13.29266602 69.615 -14.05517578 69.0625 C-21.35056065 63.79250192 -28.73894221 58.65839278 -36.14428711 53.54443359 C-41.82150733 49.61756816 -47.43542962 45.61648132 -53.00366211 41.53637695 C-54.43568236 40.49534998 -55.88215586 39.47329063 -57.35375977 38.48901367 C-60.44348416 36.28088942 -61.77386178 34.4796143 -62.4375 30.8125 C-62.63149876 27.00437626 -61.95340417 24.7346914 -59.375 21.8125 C-56.01427325 19.75872254 -53.36510384 19.61361756 -49.51171875 20.22802734 C-44.86323378 21.49956219 -40.71139423 24.02220291 -36.5 26.3125 C-35.48929443 26.84915283 -34.47858887 27.38580566 -33.43725586 27.9387207 C-28.72643093 30.44433608 -24.0402199 32.9918423 -19.37109375 35.57421875 C-18.61618652 35.98671875 -17.8612793 36.39921875 -17.08349609 36.82421875 C-15.70087651 37.58174957 -14.3243066 38.35048256 -12.95556641 39.1328125 C-8.39035584 41.63429774 -4.57196084 42.42690047 0.625 42.8125 C0.625 41.4925 0.625 40.1725 0.625 38.8125 C-3.90299155 36.39012726 -8.4339804 33.97347945 -12.9675293 31.56152344 C-14.50119123 30.7446349 -16.03410125 29.92633272 -17.56616211 29.10644531 C-25.83413173 24.68309515 -34.14007056 20.33385765 -42.56640625 16.21875 C-43.58975319 15.70145325 -43.58975319 15.70145325 -44.6337738 15.17370605 C-45.61085045 14.70583679 -45.61085045 14.70583679 -46.60766602 14.22851562 C-47.16825211 13.95382446 -47.7288382 13.6791333 -48.30641174 13.39611816 C-53.66851982 11.88328754 -58.88766572 12.97154243 -64.17382812 14.28125 C-64.81399872 14.43730713 -65.45416931 14.59336426 -66.11373901 14.75415039 C-67.49331206 15.09124756 -68.87203295 15.43184813 -70.24995422 15.77563477 C-72.44527856 16.32221716 -74.64317817 16.85701983 -76.84216309 17.38867188 C-83.09068944 18.90104525 -89.33505981 20.42993167 -95.57519531 21.9765625 C-99.40531937 22.92499398 -103.23931509 23.85622041 -107.07603455 24.77758789 C-108.52217 25.12837238 -109.96680354 25.48542056 -111.40968323 25.84936523 C-120.7239472 28.19696443 -130.7805695 30.64328331 -140.375 28.8125 C-143.54067082 26.23899694 -145.16345401 24.91724016 -145.9375 20.875 C-145.22595331 17.00102359 -144.31740409 14.42321326 -141.375 11.8125 C-130.58999866 6.13294368 -118.19164168 2.83935197 -106.6875 -1.0625 C-105.64329895 -1.41788849 -104.5990979 -1.77327698 -103.52325439 -2.13943481 C-63.58335991 -15.71092702 -36.87256393 -24.24993161 0 0 Z " fill="#DEA43D" transform="translate(676.375,347.1875)"/>
<path d="M0 0 C5.06174003 -0.07095043 10.12296253 -0.11904284 15.18511963 -0.14782715 C16.38298096 -0.16079834 17.58084229 -0.17376953 18.81500244 -0.18713379 C20.43487061 -0.18894653 20.43487061 -0.18894653 22.08746338 -0.1907959 C22.99875 -0.19490479 23.91003662 -0.19901367 24.84893799 -0.20324707 C27.50506757 0.06574519 29.04969116 0.52502581 31.24761963 2.03967285 C32.30914307 3.84875488 32.30914307 3.84875488 33.10699463 6.04748535 C33.56706909 7.2685498 33.56706909 7.2685498 34.03643799 8.51428223 C34.35362793 9.38891113 34.67081787 10.26354004 34.99761963 11.16467285 C40.06883337 24.41522523 45.40129695 36.55090574 54.56011963 47.4888916 C56.46373046 50.36634038 56.8744693 51.664759 56.24761963 55.03967285 C54.1527814 57.58559738 52.21038634 58.64389401 49.12188721 59.70959473 C48.29284378 59.99999634 47.46380035 60.29039795 46.6096344 60.58959961 C45.71286484 60.89281128 44.81609528 61.19602295 43.89215088 61.50842285 C42.95771652 61.83000366 42.02328217 62.15158447 41.06053162 62.48291016 C39.07566306 63.16300856 37.08922794 63.83854936 35.10137939 64.5098877 C32.11171179 65.5222035 29.12979443 66.55518458 26.14801025 67.5904541 C1.50008067 76.03967285 1.50008067 76.03967285 -8.75238037 76.03967285 C-8.75238037 77.02967285 -8.75238037 78.01967285 -8.75238037 79.03967285 C-8.04597412 79.30779785 -7.33956787 79.57592285 -6.61175537 79.85217285 C-3.63244421 81.0894824 -0.83986318 82.50589836 1.99761963 84.03967285 C2.96183838 84.55529785 3.92605713 85.07092285 4.91949463 85.60217285 C7.24761963 87.03967285 7.24761963 87.03967285 8.24761963 89.03967285 C-27.46170318 87.8464518 -27.46170318 87.8464518 -33.75238037 82.03967285 C-37.47226348 77.93230192 -40.0374356 73.98110065 -42.18988037 68.85217285 C-42.48354492 68.16075195 -42.77720947 67.46933105 -43.07977295 66.75695801 C-50.11305081 49.77485776 -61.83695993 20.29341154 -55.75238037 2.03967285 C-53.40422855 0.86559694 -51.93901336 0.88454817 -49.31976318 0.83435059 C-48.39471481 0.81442047 -47.46966644 0.79449036 -46.5165863 0.7739563 C-45.5064296 0.7572287 -44.49627289 0.7405011 -43.45550537 0.7232666 C-41.88159782 0.69189102 -41.88159782 0.69189102 -40.27589417 0.65988159 C-36.85146664 0.59348331 -33.42696738 0.53471918 -30.00238037 0.47717285 C-28.8468869 0.45665863 -27.69139343 0.43614441 -26.50088501 0.41500854 C-17.66749234 0.25847676 -8.83385033 0.12733125 0 0 Z " fill="#E3A53C" transform="translate(417.75238037109375,801.9603271484375)"/>
<path d="M0 0 C2.39130157 2.99917723 4.14733093 6.04950998 5.85546875 9.48046875 C6.39220215 10.55482178 6.92893555 11.6291748 7.48193359 12.73608398 C8.04477051 13.87505127 8.60760742 15.01401855 9.1875 16.1875 C10.05109131 17.92978882 10.05109131 17.92978882 10.93212891 19.70727539 C12.62690658 23.1355102 14.31390006 26.56749101 16 30 C16.46325684 30.93521484 16.92651367 31.87042969 17.40380859 32.83398438 C18.57202808 35.19659436 19.72663058 37.56519311 20.875 39.9375 C21.21426514 40.62158936 21.55353027 41.30567871 21.90307617 42.01049805 C24.11563459 46.65309624 24.11563459 46.65309624 23 50 C22.26394531 49.7834375 21.52789063 49.566875 20.76953125 49.34375 C19.79371094 49.0653125 18.81789063 48.786875 17.8125 48.5 C16.84957031 48.2215625 15.88664063 47.943125 14.89453125 47.65625 C12.10342595 47.0234488 9.84448212 46.70472504 7 47 C3.97516776 50.51270841 2.25688137 54.52768389 0.25 58.6875 C-13.45735563 86.48010827 -39.16094182 104.54863714 -67.640625 114.6875 C-83.5064192 120.00922988 -101.22407776 123.53191949 -118 123 C-118 122.01 -118 121.02 -118 120 C-116.78606567 119.62415771 -116.78606567 119.62415771 -115.54760742 119.24072266 C-95.18986379 112.87306187 -75.16179534 106.58139838 -59 92 C-58.26007813 91.40058594 -57.52015625 90.80117188 -56.7578125 90.18359375 C-43.29042592 79.02290487 -32.16075886 61.64840958 -27 45 C-27 43.35 -27 41.7 -27 40 C-32.28 38.68 -37.56 37.36 -43 36 C-41.683101 32.04930301 -39.14624076 30.5373983 -35.9375 28.125 C-34.65647502 27.14202705 -33.37657085 26.15759213 -32.09765625 25.171875 C-31.42621582 24.65560547 -30.75477539 24.13933594 -30.06298828 23.60742188 C-26.618079 20.9232464 -23.25071235 18.14530558 -19.875 15.375 C-13.38091753 10.06380478 -6.76656047 4.95958125 0 0 Z " fill="#2D636E" transform="translate(551,762)"/>
<path d="M0 0 C13.2 0 26.4 0 40 0 C40 32.67 40 65.34 40 99 C27.13 99 14.26 99 1 99 C-1.63710387 95.0443442 -1.27273426 91.65174083 -1.24291992 87.06225586 C-1.24481827 86.14819473 -1.24671661 85.23413361 -1.24867249 84.29237366 C-1.25238178 81.26644353 -1.24167442 78.2407526 -1.23046875 75.21484375 C-1.229277 73.11641976 -1.22882378 71.01799523 -1.2290802 68.91957092 C-1.2275151 64.52048405 -1.21922289 60.12147852 -1.20581055 55.72241211 C-1.18881026 50.07393931 -1.18499649 44.42555589 -1.18575573 38.77706051 C-1.18548427 34.44404746 -1.18000708 30.11105408 -1.17275429 25.77804756 C-1.16956472 23.69476025 -1.16759954 21.6114707 -1.16686058 19.52818108 C-1.16470067 16.62153167 -1.15596426 13.71497847 -1.14526367 10.80834961 C-1.14571686 9.94128387 -1.14617004 9.07421814 -1.14663696 8.18087769 C-1.11447754 2.22895509 -1.11447754 2.22895509 0 0 Z M9 79 C8.0008136 82.66368347 7.47431907 84.89022914 9.125 88.375 C11.49093746 90.42547913 12.87702282 90.8512868 16 91 C19.33001494 90.2071393 20.69633462 89.35264366 22.9375 86.75 C24.28965141 83.97718634 24.28965141 83.97718634 23.375 80.8125 C22.17020643 77.7495641 22.17020643 77.7495641 19 76 C14.68087782 75.54051892 11.93693286 75.62796598 9 79 Z " fill="#2D636E" transform="translate(772,366)"/>
<path d="M0 0 C1.1653125 -0.00128906 2.330625 -0.00257813 3.53125 -0.00390625 C4.76101563 -0.00003906 5.99078125 0.00382812 7.2578125 0.0078125 C9.04445313 0.00201172 9.04445313 0.00201172 10.8671875 -0.00390625 C30.98810853 0.01810789 30.98810853 0.01810789 33.99792957 2.42368031 C36.42024073 5.41313877 35.77017168 9.23411311 35.72338867 12.91870117 C35.72404579 14.26535103 35.72404579 14.26535103 35.72471619 15.63920593 C35.72262429 18.60995141 35.69927426 21.58013422 35.67578125 24.55078125 C35.67018672 26.60915315 35.66591595 28.66752905 35.66291809 30.72590637 C35.65145805 36.14621998 35.62198079 41.56629282 35.58880615 46.98651123 C35.5581303 52.51636498 35.54441806 58.04625759 35.52929688 63.57617188 C35.4971123 74.42849126 35.44590186 85.28063187 35.3828125 96.1328125 C29.86524774 96.1821646 24.34781079 96.21850912 18.83007812 96.24267578 C16.95212568 96.25274784 15.07418897 96.26640612 13.19628906 96.28369141 C10.5006116 96.30788703 7.80514104 96.31928333 5.109375 96.328125 C4.26662018 96.33844757 3.42386536 96.34877014 2.55557251 96.35940552 C0.49660003 96.35980394 -1.56186685 96.25538838 -3.6171875 96.1328125 C-8.80802388 90.94197612 -6.75100051 77.52758253 -6.75613403 70.37083435 C-6.75434522 68.59227471 -6.75229451 66.81371531 -6.75 65.03515625 C-6.75067445 63.19096362 -6.75164566 61.34677107 -6.75289917 59.50257874 C-6.75436616 55.65901839 -6.75225163 51.81548144 -6.74755859 47.97192383 C-6.74182559 43.03539417 -6.74516901 38.09891845 -6.75113106 33.16239071 C-6.75473291 29.36472664 -6.75360046 25.56707553 -6.75100327 21.76941109 C-6.75033482 19.94765784 -6.75115956 18.12590343 -6.75348282 16.30415154 C-6.75600706 13.77166459 -6.7521737 11.23926733 -6.74658203 8.70678711 C-6.74860626 7.94998154 -6.75063049 7.19317596 -6.75271606 6.41343689 C-6.72653436 0.05053383 -6.23798611 0.0066635 0 0 Z M12.4453125 9.1953125 C10.03563995 12.02905979 10.03563995 12.02905979 10.3828125 15.7578125 C11.41153404 19.74053014 11.41153404 19.74053014 14.3828125 22.1328125 C19.00280425 22.63659079 19.00280425 22.63659079 23.2578125 21.0703125 C24.97096811 18.11987784 25.20494083 15.51237427 25.3828125 12.1328125 C24.42638368 9.33709748 24.02982272 8.45631761 21.3828125 7.1328125 C17.35089945 6.59522409 15.8209089 6.8252129 12.4453125 9.1953125 Z " fill="#2D636E" transform="translate(376.6171875,365.8671875)"/>
<path d="M0 0 C0.90070724 0.00022659 1.80141449 0.00045319 2.72941589 0.00068665 C4.18267021 0.02391243 4.18267021 0.02391243 5.6652832 0.04760742 C7.15714897 0.05397469 7.15714897 0.05397469 8.67915344 0.06047058 C11.8583982 0.07727465 15.03701102 0.11493041 18.21606445 0.15307617 C20.37035218 0.16812076 22.52464983 0.18180955 24.67895508 0.1940918 C29.96259803 0.22463309 35.2448732 0.28335208 40.52856445 0.34057617 C40.52856445 12.88057617 40.52856445 25.42057617 40.52856445 38.34057617 C34.17462483 38.38645299 27.82125835 38.42628904 21.46728516 38.45043945 C19.30515599 38.46050568 17.14304046 38.47415972 14.98095703 38.49145508 C11.87569821 38.51567595 8.77061915 38.52705298 5.6652832 38.53588867 C4.69644699 38.54621124 3.72761078 38.55653381 2.72941589 38.56716919 C1.82870865 38.56732025 0.9280014 38.56747131 0 38.56762695 C-1.1891375 38.57428879 -1.1891375 38.57428879 -2.40229797 38.58108521 C-4.47143555 38.34057617 -4.47143555 38.34057617 -7.47143555 36.34057617 C-7.77614183 33.82186253 -7.89167451 31.55258185 -7.86987305 29.03198242 C-7.87274323 28.30945786 -7.8756134 27.58693329 -7.87857056 26.84251404 C-7.88061311 25.31345843 -7.87506982 23.7843768 -7.86254883 22.25537109 C-7.84651954 19.91533836 -7.86237732 17.57703883 -7.8815918 15.23706055 C-7.87960894 13.75203069 -7.87576438 12.26700192 -7.86987305 10.78198242 C-7.87594574 10.08190567 -7.88201843 9.38182892 -7.88827515 8.66053772 C-7.8181473 3.81055103 -7.8181473 3.81055103 -6.22663879 1.65322876 C-3.99484223 -0.01585061 -2.76912432 -0.02326995 0 0 Z " fill="#2D636E" transform="translate(575.471435546875,402.659423828125)"/>
<path d="M0 0 C3.73560768 1.47121535 3.73560768 1.47121535 5 4 C5.09584979 5.8521563 5.12983606 7.70787153 5.125 9.5625 C5.12886719 11.04943359 5.12886719 11.04943359 5.1328125 12.56640625 C5 15 5 15 4 16 C2.66956375 16.0983721 1.33406656 16.13078592 0 16.1328125 C-0.804375 16.13410156 -1.60875 16.13539063 -2.4375 16.13671875 C-3.283125 16.13285156 -4.12875 16.12898438 -5 16.125 C-5.845625 16.12886719 -6.69125 16.13273437 -7.5625 16.13671875 C-8.366875 16.13542969 -9.17125 16.13414062 -10 16.1328125 C-10.7425 16.13168457 -11.485 16.13055664 -12.25 16.12939453 C-14 16 -14 16 -15 15 C-15.47969312 10.24238794 -15.81318592 5.66509499 -13.6875 1.3125 C-9.32323177 -0.81888681 -4.76319025 -0.60240347 0 0 Z " fill="#2D636E" transform="translate(597,383)"/>
</svg>
