<?xml version="1.0" encoding="UTF-8"?>
<svg width="64" height="64" viewBox="0 0 100 100" fill="none" xmlns="http://www.w3.org/2000/svg">
  <path d="M15 45 L50 18 L85 45 V82 C85 84 83.5 86 81 86 H19 C16.5 86 15 84 15 82 V45 Z" stroke="#3b82f6" stroke-width="4" stroke-linejoin="round" fill="none" />
  <rect x="32" y="55" width="36" height="26" rx="4" stroke="#3b82f6" stroke-width="3" fill="none" />
  <path d="M38 60 L50 54 L62 60 V72 L50 78 L38 72 Z" stroke="#3b82f6" stroke-width="2.5" stroke-linejoin="round" fill="none" />
  <path d="M50 54 V66" stroke="#3b82f6" stroke-width="2" />
  <path d="M38 60 L50 66 L62 60" stroke="#3b82f6" stroke-width="2" />
  <rect x="66" y="47" width="16" height="16" rx="3" fill="#3b82f6" opacity="0.15" />
  <path d="M70 51 V57" stroke="#3b82f6" stroke-width="2" stroke-linecap="round" />
  <path d="M78 51 V57" stroke="#3b82f6" stroke-width="2" stroke-linecap="round" />
  <rect x="69" y="59" width="10" height="6" rx="1" fill="#3b82f6" opacity="0.5" />
  <circle cx="40" cy="88" r="3" fill="#3b82f6" />
  <circle cx="50" cy="88" r="3" fill="#3b82f6" />
  <circle cx="60" cy="88" r="3" fill="#3b82f6" />
</svg>
